<svg id="Layer_1" data-name="Layer 1" xmlns="http://www.w3.org/2000/svg" xmlns:xlink="http://www.w3.org/1999/xlink" viewBox="0 0 216 216"><defs><style>.cls-1{fill:none;}.cls-2{isolation:isolate;}.cls-3{fill:#40325d;}.cls-4{fill:#7158a5;}.cls-5{clip-path:url(#clip-path);}.cls-6{fill:#9675db;}.cls-7{fill:#9575da;}.cls-8{fill:#9574d8;}.cls-9{fill:#9473d7;}.cls-10{fill:#9373d6;}.cls-11{fill:#9272d5;}.cls-12{fill:#9171d4;}.cls-13{fill:#9071d2;}.cls-14{fill:#9070d1;}.cls-15{fill:#8f70d0;}.cls-16{fill:#8e6fcf;}.cls-17{fill:#8d6ecd;}.cls-18{fill:#8c6ecc;}.cls-19{fill:#8b6dcb;}.cls-20{fill:#8b6cca;}.cls-21{fill:#8a6cc9;}.cls-22{fill:#896bc7;}.cls-23{fill:#886ac6;}.cls-24{fill:#876ac5;}.cls-25{fill:#8669c4;}.cls-26{fill:#8668c3;}.cls-27{fill:#8568c1;}.cls-28{fill:#8467c0;}.cls-29{fill:#8366bf;}.cls-30{fill:#8266be;}.cls-31{fill:#8165bd;}.cls-32{fill:#8164bb;}.cls-33{fill:#8064ba;}.cls-34{fill:#7f63b9;}.cls-35{fill:#7e63b8;}.cls-36{fill:#7d62b6;}.cls-37{fill:#7c61b5;}.cls-38{fill:#7c61b4;}.cls-39{fill:#7b60b3;}.cls-40{fill:#7a5fb2;}.cls-41{fill:#795fb0;}.cls-42{fill:#785eaf;}.cls-43{fill:#775dae;}.cls-44{fill:#775dad;}.cls-45{fill:#765cac;}.cls-46{fill:#755baa;}.cls-47{fill:#745ba9;}.cls-48{fill:#735aa8;}.cls-49{fill:#7259a7;}.cls-50{fill:#7259a6;}.cls-51{fill:#7158a4;}.cls-52{fill:#7057a3;}.cls-53{fill:#6f57a2;}.cls-54{fill:#6e56a1;}.cls-55{fill:#6d56a0;}.cls-56{fill:#6d559e;}.cls-57{fill:#6c549d;}.cls-58{fill:#6b549c;}.cls-59{fill:#6a539b;}.cls-60{fill:#695299;}.cls-61{fill:#685298;}.cls-62{fill:#685197;}.cls-63{fill:#675096;}.cls-64{fill:#665095;}.cls-65{fill:#654f93;}.cls-66{fill:#644e92;}.cls-67{fill:#644e91;}.cls-68{fill:#634d90;}.cls-69{fill:#624c8f;}.cls-70{fill:#614c8d;}.cls-71{fill:#604b8c;}.cls-72{fill:#5f4b8b;}.cls-73{fill:#5f4a8a;}.cls-74{fill:#5e4989;}.cls-75{fill:#5d4987;}.cls-76{fill:#5c4886;}.cls-77{fill:#5b4785;}.cls-78{fill:#5a4784;}.cls-79{fill:#5a4682;}.cls-80{fill:#594581;}.cls-81{fill:#584580;}.cls-82{fill:#57447f;}.cls-83{fill:#56437e;}.cls-84{fill:#55437c;}.cls-85{fill:#55427b;}.cls-86{clip-path:url(#clip-path-2);}.cls-87{fill:#54417a;}.cls-88{fill:#534179;}.cls-89{fill:#524078;}.cls-90{fill:#513f76;}.cls-91{fill:#503f75;}.cls-92{fill:#503e74;}.cls-93{fill:#4f3e73;}.cls-94{fill:#4e3d72;}.cls-95{fill:#4d3c70;}.cls-96{fill:#4c3c6f;}.cls-97{fill:#4b3b6e;}.cls-98{fill:#4b3a6d;}.cls-99{fill:#4a3a6b;}.cls-100{fill:#49396a;}.cls-101{fill:#483869;}.cls-102{fill:#473868;}.cls-103{fill:#463767;}.cls-104{fill:#463665;}.cls-105{fill:#453664;}.cls-106{fill:#443563;}.cls-107{fill:#433462;}.cls-108{fill:#423461;}.cls-109{fill:#41335f;}.cls-110{fill:#41335e;}.cls-111{fill:#3f315c;}.cls-112{fill:#3e315b;}.cls-113{fill:#3d3059;}.cls-114{fill:#3c2f58;}.cls-115{fill:#3c2f57;}.cls-116{fill:#3b2e56;}.cls-117{fill:#3a2d54;}.cls-118{fill:#392d53;}.cls-119{fill:#382c52;}.cls-120{fill:#372b51;}.cls-121{fill:#372b50;}.cls-122{fill:#362a4e;}.cls-123{fill:#35294d;}.cls-124{fill:#34294c;}.cls-125{fill:#33284b;}.cls-126{clip-path:url(#clip-path-3);}.cls-127{clip-path:url(#clip-path-4);}.cls-128{clip-path:url(#clip-path-5);}</style><clipPath id="clip-path"><path class="cls-1" d="M82.32,64l16.48,1.4C88.4,64.53,79.62,73.22,76.27,88L59.79,86.64C63.14,71.83,71.92,63.13,82.32,64Z"/></clipPath><clipPath id="clip-path-2"><path class="cls-1" d="M86.3,51.67l16.48,1.39a25.79,25.79,0,0,1,4.52.8c8.09,2.16,14.72,8,16.61,19l-16.48-1.4c-1.89-10.95-8.53-16.83-16.61-19A24.9,24.9,0,0,0,86.3,51.67Z"/></clipPath><clipPath id="clip-path-3"><path class="cls-1" d="M124.64,75.26l16.48,1.39c-9-.76-17.62,7.31-20.22,18.85l-16.48-1.39C107,82.56,115.68,74.5,124.64,75.26Z"/></clipPath><clipPath id="clip-path-4"><path class="cls-1" d="M127.93,62.78l16.48,1.4a27.57,27.57,0,0,1,4.73.86l-16.48-1.39A27.6,27.6,0,0,0,127.93,62.78Z"/></clipPath><clipPath id="clip-path-5"><path class="cls-1" d="M132.66,63.65,149.14,65c14,3.76,21.17,16.79,17.26,34.06l-16.48-1.39C153.83,80.44,146.7,67.4,132.66,63.65Z"/></clipPath></defs><g class="cls-2"><polygon class="cls-3" points="59.79 86.64 76.27 88.03 65.69 134.86 49.21 133.47 59.79 86.64"/><polygon class="cls-4" points="64.88 60.77 81.36 62.16 81.64 62.24 65.16 60.84 64.88 60.77"/><polygon class="cls-4" points="55.81 45.67 72.29 47.07 84.06 50.21 67.58 48.82 55.81 45.67"/><polygon class="cls-3" points="67.58 48.82 84.06 50.21 81.36 62.16 64.88 60.77 67.58 48.82"/><g class="cls-2"><g class="cls-5"><g class="cls-2"><path class="cls-6" d="M82.32,64l16.48,1.4A16.44,16.44,0,0,0,89,67.66L72.48,66.27A16.45,16.45,0,0,1,82.32,64"/><path class="cls-7" d="M72.48,66.27,89,67.66l-.54.33-16.48-1.4.54-.32"/><path class="cls-8" d="M71.94,66.59,88.42,68l-.5.33L71.43,66.93l.51-.34"/><path class="cls-9" d="M71.43,66.93l16.49,1.39-.48.33L71,67.26l.47-.33"/><path class="cls-10" d="M71,67.26l16.48,1.39-.32.24-16.48-1.4.32-.23"/><path class="cls-11" d="M70.64,67.49l16.48,1.4-.31.24L70.33,67.74l.31-.25"/><path class="cls-12" d="M70.33,67.74l16.48,1.39-.31.25L70,68l.31-.25"/><path class="cls-13" d="M70,68,86.5,69.38l-.31.26-16.48-1.4L70,68"/><path class="cls-14" d="M69.71,68.24l16.48,1.4-.26.22-16.48-1.4.26-.22"/><path class="cls-15" d="M69.45,68.46l16.48,1.4-.23.21-16.48-1.4.23-.21"/><path class="cls-16" d="M69.22,68.67l16.48,1.4-.24.21L69,68.89l.24-.22"/><path class="cls-17" d="M69,68.89l16.48,1.39-.23.22L68.75,69.11l.23-.22"/><path class="cls-18" d="M68.75,69.11,85.23,70.5l-.23.23-16.48-1.4.23-.22"/><path class="cls-19" d="M68.52,69.33,85,70.73l-.22.22L68.29,69.56c.08-.08.16-.15.23-.23"/><path class="cls-20" d="M68.29,69.56,84.78,71l-.2.2L68.1,69.76l.19-.2"/><path class="cls-21" d="M68.1,69.76l16.48,1.39-.19.2L67.91,70l.19-.2"/><path class="cls-22" d="M67.91,70l16.48,1.39-.19.21-16.48-1.4.19-.2"/><path class="cls-23" d="M67.72,70.16l16.48,1.4-.19.2L67.53,70.37l.19-.21"/><path class="cls-24" d="M67.53,70.37,84,71.76l-.19.22-16.48-1.4.19-.21"/><path class="cls-25" d="M67.34,70.58,83.82,72l-.18.21-16.48-1.4.18-.21"/><path class="cls-26" d="M67.16,70.79l16.48,1.4-.18.21L67,71l.18-.21"/><path class="cls-27" d="M67,71l16.48,1.4-.16.2L66.81,71.2A1.63,1.63,0,0,0,67,71"/><path class="cls-28" d="M66.81,71.2,83.3,72.6l-.17.2L66.65,71.41l.16-.21"/><path class="cls-29" d="M66.65,71.41,83.13,72.8,83,73l-16.48-1.4.16-.2"/><path class="cls-30" d="M66.49,71.61,83,73l-.17.21-16.48-1.4.17-.21"/><path class="cls-31" d="M66.32,71.82l16.48,1.4-.16.21L66.16,72l.16-.21"/><path class="cls-32" d="M66.16,72l16.48,1.4-.16.21L66,72.25l.16-.22"/><path class="cls-33" d="M66,72.25l16.48,1.39-.15.22-16.48-1.4.15-.21"/><path class="cls-34" d="M65.85,72.46l16.48,1.4-.15.2L65.7,72.67l.15-.21"/><path class="cls-35" d="M65.7,72.67l16.48,1.39-.15.21L65.55,72.88l.15-.21"/><path class="cls-36" d="M65.55,72.88,82,74.27l-.15.22L65.4,73.09l.15-.21"/><path class="cls-37" d="M65.4,73.09l16.48,1.4-.14.21L65.26,73.31a1.64,1.64,0,0,1,.14-.22"/><path class="cls-38" d="M65.26,73.31,81.74,74.7l-.15.22-16.48-1.4.15-.21"/><path class="cls-39" d="M65.11,73.52l16.48,1.4-.14.22L65,73.74l.14-.22"/><path class="cls-40" d="M65,73.74l16.48,1.4a1.64,1.64,0,0,0-.14.22L64.83,74l.14-.22"/><path class="cls-41" d="M64.83,74l16.48,1.4-.14.22L64.69,74.19c0-.08.09-.15.14-.23"/><path class="cls-42" d="M64.69,74.19l16.48,1.39L81,75.8,64.55,74.41l.14-.22"/><path class="cls-43" d="M64.55,74.41,81,75.8,80.9,76l-16.48-1.4.13-.22"/><path class="cls-44" d="M64.42,74.63,80.9,76l-.14.22L64.28,74.86l.14-.23"/><path class="cls-45" d="M64.28,74.86l16.48,1.39-.13.23L64.15,75.09l.13-.23"/><path class="cls-46" d="M64.15,75.09l16.48,1.39-.13.23L64,75.32a1.71,1.71,0,0,1,.13-.23"/><path class="cls-47" d="M64,75.32,80.5,76.71l-.13.23L63.89,75.55a1.71,1.71,0,0,1,.13-.23"/><path class="cls-48" d="M63.89,75.55l16.48,1.39c-.05.08-.09.16-.13.24l-16.48-1.4.13-.23"/><path class="cls-49" d="M63.76,75.78l16.48,1.4-.13.23L63.63,76c0-.08.08-.16.13-.24"/><path class="cls-50" d="M63.63,76l16.48,1.39c0,.08-.09.16-.13.25L63.5,76.26l.13-.24"/><path class="cls-51" d="M63.5,76.26,80,77.66l-.12.24L63.38,76.5l.12-.24"/><path class="cls-52" d="M63.38,76.5l16.48,1.4c0,.08-.09.16-.13.24L63.25,76.75c0-.08.08-.17.13-.25"/><path class="cls-53" d="M63.25,76.75l16.48,1.39-.12.25L63.13,77l.12-.24"/><path class="cls-54" d="M63.13,77l16.48,1.4-.12.25L63,77.24l.12-.25"/><path class="cls-55" d="M63,77.24l16.48,1.4-.12.25-16.48-1.4.12-.25"/><path class="cls-56" d="M62.89,77.49l16.48,1.4-.12.25L62.77,77.75l.12-.26"/><path class="cls-57" d="M62.77,77.75l16.48,1.39-.12.26L62.65,78l.12-.26"/><path class="cls-58" d="M62.65,78,79.13,79.4l-.12.27-16.48-1.4.12-.26"/><path class="cls-59" d="M62.53,78.27,79,79.67l-.12.26L62.41,78.54l.12-.27"/><path class="cls-60" d="M62.41,78.54l16.48,1.39-.12.27L62.29,78.81l.12-.27"/><path class="cls-61" d="M62.29,78.81,78.77,80.2c0,.09-.07.18-.11.27L62.18,79.08c0-.09.07-.19.11-.27"/><path class="cls-62" d="M62.18,79.08l16.48,1.39c0,.09-.08.18-.11.27L62.07,79.35c0-.09.07-.18.11-.27"/><path class="cls-63" d="M62.07,79.35l16.48,1.39-.12.28L62,79.62l.12-.27"/><path class="cls-64" d="M62,79.62,78.43,81c0,.09-.07.18-.11.28L61.84,79.9a2.33,2.33,0,0,0,.11-.28"/><path class="cls-65" d="M61.84,79.9l16.48,1.4c0,.09-.07.19-.11.29l-16.48-1.4c0-.09.07-.19.11-.29"/><path class="cls-66" d="M61.73,80.19l16.48,1.4c0,.1-.08.19-.11.29L61.62,80.49c0-.1.07-.2.11-.3"/><path class="cls-67" d="M61.62,80.49,78.1,81.88c0,.1-.08.2-.11.3l-16.48-1.4c0-.1.07-.19.11-.29"/><path class="cls-68" d="M61.51,80.78,78,82.18c0,.1-.08.2-.11.3L61.4,81.08c0-.1.07-.2.11-.3"/><path class="cls-69" d="M61.4,81.08l16.48,1.4-.11.3-16.48-1.4.11-.3"/><path class="cls-70" d="M61.29,81.38l16.48,1.4-.1.3-16.48-1.4c0-.1.07-.2.1-.3"/><path class="cls-71" d="M61.19,81.68l16.48,1.4-.11.3L61.08,82c0-.1.07-.21.11-.31"/><path class="cls-72" d="M61.08,82l16.48,1.39c0,.11-.07.22-.1.33L61,82.31c0-.11.07-.21.1-.32"/><path class="cls-73" d="M61,82.31l16.48,1.4c0,.11-.07.22-.11.33l-16.48-1.4c0-.11.07-.22.11-.33"/><path class="cls-74" d="M60.87,82.64,77.35,84c0,.1-.07.21-.1.32L60.77,83c0-.11.07-.22.1-.33"/><path class="cls-75" d="M60.77,83l16.48,1.39c0,.11-.07.23-.1.34L60.67,83.3c0-.11.06-.22.1-.33"/><path class="cls-76" d="M60.67,83.3l16.48,1.4c0,.11-.07.22-.1.33L60.57,83.64a3.37,3.37,0,0,1,.1-.34"/><path class="cls-77" d="M60.57,83.64,77.05,85c0,.11-.07.23-.1.34L60.47,84c0-.11.06-.22.1-.33"/><path class="cls-78" d="M60.47,84,77,85.37l-.1.34L60.37,84.32c0-.12.07-.23.1-.35"/><path class="cls-79" d="M60.37,84.32l16.48,1.39c0,.12-.06.24-.1.37l-16.48-1.4c0-.12.07-.24.1-.36"/><path class="cls-80" d="M60.27,84.68l16.48,1.4-.09.37-16.48-1.4.09-.37"/><path class="cls-81" d="M60.18,85.05l16.48,1.4c0,.12-.07.24-.1.37l-16.48-1.4c0-.12.06-.25.1-.37"/><path class="cls-82" d="M60.08,85.42l16.48,1.4-.09.37L60,85.8l.09-.38"/><path class="cls-83" d="M60,85.8l16.48,1.39-.09.38L59.9,86.17,60,85.8"/><path class="cls-84" d="M59.9,86.17l16.48,1.4-.09.38-16.48-1.4.09-.38"/><path class="cls-85" d="M59.81,86.55,76.29,88l0,.08L59.79,86.64l0-.09"/></g></g></g><polygon class="cls-3" points="104.42 94.11 120.9 95.5 109.36 146.53 92.88 145.14 104.42 94.11"/><g class="cls-2"><g class="cls-86"><g class="cls-2"><path class="cls-30" d="M86.3,51.67l16.48,1.39.22,0-16.48-1.4H86.3"/><path class="cls-31" d="M86.52,51.68,103,53.08l.28,0L86.8,51.71l-.28,0"/><path class="cls-32" d="M86.8,51.71l16.48,1.4.28,0-16.48-1.4-.28,0"/><path class="cls-33" d="M87.08,51.74l16.48,1.4.27,0L87.35,51.78l-.27,0"/><path class="cls-34" d="M87.35,51.78l16.48,1.39.28,0-16.48-1.4-.28,0"/><path class="cls-35" d="M87.63,51.81l16.48,1.4.27,0L87.9,51.85l-.27,0"/><path class="cls-36" d="M87.9,51.85l16.48,1.4.27,0L88.17,51.9l-.27,0"/><path class="cls-37" d="M88.17,51.9l16.48,1.39.27.05-16.48-1.4-.27,0"/><path class="cls-38" d="M88.44,51.94l16.48,1.4.28,0L88.72,52l-.28-.05"/><path class="cls-39" d="M88.72,52l16.48,1.4.27,0L89,52l-.27,0"/><path class="cls-40" d="M89,52l16.48,1.4.27.05L89.26,52.1,89,52"/><path class="cls-41" d="M89.26,52.1l16.48,1.39.27.06-16.48-1.4-.27,0"/><path class="cls-42" d="M89.53,52.15,106,53.55l.27.06L89.8,52.22l-.27-.07"/><path class="cls-43" d="M89.8,52.22l16.48,1.39.28.06L90.08,52.28l-.28-.06"/><path class="cls-44" d="M90.08,52.28l16.48,1.39.27.07L90.35,52.35l-.27-.07"/><path class="cls-45" d="M90.35,52.35l16.48,1.39.28.07L90.63,52.42l-.28-.07"/><path class="cls-46" d="M90.63,52.42l16.48,1.39.19,0,.07,0L90.89,52.49l-.07,0-.19,0"/><path class="cls-47" d="M90.89,52.49l16.48,1.39.25.07-16.48-1.4-.25-.06"/><path class="cls-48" d="M91.14,52.55,107.62,54l.24.07-16.48-1.4-.24-.07"/><path class="cls-49" d="M91.38,52.62,107.86,54l.24.07L91.62,52.7l-.24-.08"/><path class="cls-50" d="M91.62,52.7l16.48,1.39.25.08-16.49-1.4-.24-.07"/><path class="cls-51" d="M91.86,52.77l16.49,1.4.23.07L92.1,52.85l-.24-.08"/><path class="cls-52" d="M92.1,52.85l16.48,1.39.23.07L92.33,52.92l-.23-.07"/><path class="cls-53" d="M92.33,52.92l16.48,1.39.22.08L92.55,53l-.22-.08"/><path class="cls-54" d="M92.55,53,109,54.39l.22.08-16.48-1.4L92.55,53"/><path class="cls-55" d="M92.77,53.07l16.48,1.4.23.08L93,53.15l-.23-.08"/><path class="cls-56" d="M93,53.15l16.48,1.4.22.08L93.22,53.24,93,53.15"/><path class="cls-57" d="M93.22,53.24l16.48,1.39.21.08L93.43,53.32l-.21-.08"/><path class="cls-58" d="M93.43,53.32l16.48,1.39.2.08L93.63,53.4l-.2-.08"/><path class="cls-59" d="M93.63,53.4l16.48,1.39.21.09-16.48-1.4-.21-.08"/><path class="cls-60" d="M93.84,53.48l16.48,1.4.21.08L94.05,53.57l-.21-.09"/><path class="cls-61" d="M94.05,53.57,110.53,55l.2.09-16.48-1.4-.2-.08"/><path class="cls-62" d="M94.25,53.65l16.48,1.4.2.09-16.48-1.4-.2-.09"/><path class="cls-63" d="M94.45,53.74l16.48,1.4.2.08L94.65,53.83l-.2-.09"/><path class="cls-64" d="M94.65,53.83l16.48,1.39.19.09L94.84,53.92l-.19-.09"/><path class="cls-65" d="M94.84,53.92l16.48,1.39.19.09L95,54l-.19-.09"/><path class="cls-66" d="M95,54l16.48,1.39.19.09L95.22,54.1,95,54"/><path class="cls-67" d="M95.22,54.1l16.48,1.39.19.1-16.48-1.4-.19-.09"/><path class="cls-68" d="M95.41,54.19l16.48,1.4.19.09L95.6,54.28l-.19-.09"/><path class="cls-69" d="M95.6,54.28l16.48,1.4.18.09L95.78,54.38l-.18-.1"/><path class="cls-70" d="M95.78,54.38l16.48,1.39.18.1L96,54.47l-.18-.09"/><path class="cls-71" d="M96,54.47l16.48,1.4.18.1-16.48-1.4-.18-.1"/><path class="cls-72" d="M96.14,54.57,112.62,56l.18.09L96.32,54.67l-.18-.1"/><path class="cls-73" d="M96.32,54.67l16.48,1.39.18.1L96.5,54.77l-.18-.1"/><path class="cls-74" d="M96.5,54.77,113,56.16a1,1,0,0,0,.17.1L96.67,54.87l-.17-.1"/><path class="cls-75" d="M96.67,54.87l16.48,1.39.17.11L96.84,55l-.17-.1"/><path class="cls-76" d="M96.84,55l16.48,1.4a1,1,0,0,1,.17.1L97,55.07l-.17-.1"/><path class="cls-77" d="M97,55.07l16.48,1.4.17.1L97.18,55.18,97,55.07"/><path class="cls-78" d="M97.18,55.18l16.48,1.39.17.11-16.48-1.4-.17-.1"/><path class="cls-79" d="M97.35,55.28l16.48,1.4.17.11-16.48-1.4-.17-.11"/><path class="cls-80" d="M97.52,55.39,114,56.79l.17.1L97.69,55.5l-.17-.11"/><path class="cls-81" d="M97.69,55.5l16.48,1.39.16.11L97.85,55.61l-.16-.11"/><path class="cls-82" d="M97.85,55.61,114.33,57l.17.11L98,55.72l-.17-.11"/><path class="cls-83" d="M98,55.72l16.48,1.39.16.12-16.48-1.4L98,55.72"/><path class="cls-84" d="M98.18,55.83l16.48,1.4.16.11L98.34,56l-.16-.12"/><path class="cls-85" d="M98.34,56l16.48,1.39.16.12L98.5,56.06,98.34,56"/><path class="cls-87" d="M98.5,56.06,115,57.46l.16.12-16.48-1.4-.16-.12"/><path class="cls-88" d="M98.66,56.18l16.48,1.4a.61.61,0,0,1,.16.12L98.82,56.3l-.16-.12"/><path class="cls-89" d="M98.82,56.3l16.48,1.4.16.12L99,56.42l-.16-.12"/><path class="cls-90" d="M99,56.42l16.48,1.4.16.12-16.48-1.4L99,56.42"/><path class="cls-91" d="M99.14,56.54l16.48,1.4.16.12L99.3,56.67l-.16-.13"/><path class="cls-92" d="M99.3,56.67l16.48,1.39.15.13L99.45,56.8l-.15-.13"/><path class="cls-93" d="M99.45,56.8l16.48,1.39.16.13-16.48-1.4-.16-.12"/><path class="cls-94" d="M99.61,56.92l16.48,1.4.16.13L99.76,57.06l-.15-.14"/><path class="cls-95" d="M99.76,57.06l16.49,1.39.15.14-16.48-1.4-.16-.13"/><path class="cls-96" d="M99.92,57.19l16.48,1.4.16.13-16.48-1.39-.16-.14"/><path class="cls-97" d="M100.08,57.33l16.48,1.39.15.14-16.48-1.39-.15-.14"/><path class="cls-98" d="M100.23,57.47l16.48,1.39.16.14-16.48-1.39-.16-.14"/><path class="cls-99" d="M100.39,57.61,116.87,59l.15.15-16.48-1.4-.15-.14"/><path class="cls-100" d="M100.54,57.75,117,59.15l.16.15L100.7,57.9l-.16-.15"/><path class="cls-101" d="M100.7,57.9l16.48,1.4.16.15-16.49-1.39-.15-.16"/><path class="cls-102" d="M100.85,58.06l16.49,1.39.15.16L101,58.21l-.16-.15"/><path class="cls-103" d="M101,58.21l16.48,1.4.16.16-16.48-1.4-.16-.16"/><path class="cls-104" d="M101.17,58.37l16.48,1.4.15.16-16.48-1.4-.15-.16"/><path class="cls-105" d="M101.32,58.53l16.48,1.4.16.16-16.49-1.4-.15-.16"/><path class="cls-106" d="M101.47,58.69,118,60.09l.16.18-16.48-1.4-.17-.18"/><path class="cls-107" d="M101.64,58.87l16.48,1.4.16.18-16.48-1.4-.16-.18"/><path class="cls-108" d="M101.8,59.05l16.48,1.4.16.18L102,59.24c0-.07-.11-.13-.16-.19"/><path class="cls-109" d="M102,59.24l16.48,1.39c0,.06.11.12.16.19l-16.48-1.4-.16-.18"/><path class="cls-110" d="M102.12,59.42l16.48,1.4.16.18-16.48-1.39-.16-.19"/><path class="cls-3" d="M102.28,59.61,118.76,61l.17.21-16.48-1.39-.17-.21"/><path class="cls-111" d="M102.45,59.82l16.48,1.39.17.22L102.62,60a1.84,1.84,0,0,0-.17-.22"/><path class="cls-112" d="M102.62,60l16.48,1.39.17.22-16.48-1.39a1.84,1.84,0,0,0-.17-.22"/><path class="cls-113" d="M102.79,60.26l16.48,1.39c.06.08.12.15.17.23L103,60.48l-.17-.22"/><path class="cls-114" d="M103,60.48l16.48,1.4a2,2,0,0,1,.17.23l-16.48-1.4-.17-.23"/><path class="cls-115" d="M103.13,60.71l16.48,1.4.19.27L103.32,61a2.75,2.75,0,0,0-.19-.28"/><path class="cls-116" d="M103.32,61l16.48,1.39a2.75,2.75,0,0,1,.19.28l-16.48-1.4-.19-.27"/><path class="cls-117" d="M103.51,61.26,120,62.66a2.75,2.75,0,0,1,.19.28l-16.48-1.4c-.06-.09-.12-.19-.19-.28"/><path class="cls-118" d="M103.7,61.54l16.48,1.4.19.3-16.48-1.4-.19-.3"/><path class="cls-119" d="M103.89,61.84l16.48,1.4.23.36-16.48-1.39-.23-.37"/><path class="cls-120" d="M104.12,62.21,120.6,63.6l.22.38-16.48-1.4-.22-.37"/><path class="cls-121" d="M104.34,62.58,120.82,64l.22.38L104.56,63c-.08-.13-.15-.26-.22-.39"/><path class="cls-122" d="M104.56,63,121,64.36l.29.55-16.48-1.4c-.1-.18-.2-.36-.29-.54"/><path class="cls-123" d="M104.85,63.51l16.48,1.4.27.55-16.48-1.39-.27-.56"/><path class="cls-124" d="M105.12,64.07l16.48,1.39c.15.3.28.6.42.9L105.53,65c-.13-.31-.26-.61-.41-.9"/><path class="cls-125" d="M105.53,65,122,66.36a28,28,0,0,1,1.33,3.88l-16.49-1.39A25.24,25.24,0,0,0,105.53,65"/><path class="cls-124" d="M106.86,68.85l16.49,1.39.27,1.13L107.14,70c-.09-.39-.18-.76-.28-1.13"/><path class="cls-123" d="M107.14,70l16.48,1.39c.06.27.11.53.16.8l-16.48-1.4c0-.26-.1-.53-.16-.79"/><path class="cls-122" d="M107.3,70.77l16.48,1.4c0,.23.09.46.13.69l-16.48-1.4c0-.23-.08-.46-.13-.69"/></g></g></g><g class="cls-2"><g class="cls-126"><g class="cls-2"><path class="cls-6" d="M124.64,75.26l16.48,1.39a15.19,15.19,0,0,0-9,2.18l-16.48-1.4a15.11,15.11,0,0,1,9-2.17"/><path class="cls-7" d="M115.66,77.43l16.48,1.4-.55.33-16.48-1.39.55-.34"/><path class="cls-8" d="M115.11,77.77l16.48,1.39-.54.36-16.48-1.4.54-.35"/><path class="cls-9" d="M114.57,78.12l16.48,1.4-.41.28-16.48-1.39.41-.29"/><path class="cls-10" d="M114.16,78.41l16.48,1.39-.34.26-16.48-1.4.34-.25"/><path class="cls-11" d="M113.82,78.66l16.48,1.4c-.12.08-.23.17-.34.26l-16.48-1.39.34-.27"/><path class="cls-12" d="M113.48,78.93,130,80.32l-.34.27L113.14,79.2a2.88,2.88,0,0,1,.34-.27"/><path class="cls-13" d="M113.14,79.2l16.48,1.39-.26.22-16.48-1.4.26-.21"/><path class="cls-14" d="M112.88,79.41l16.48,1.4-.25.21-16.48-1.39.25-.22"/><path class="cls-15" d="M112.63,79.63,129.11,81l-.25.23-16.48-1.4.25-.22"/><path class="cls-16" d="M112.38,79.85l16.48,1.4-.25.23-16.48-1.4.25-.23"/><path class="cls-17" d="M112.13,80.08l16.48,1.4-.24.22-16.48-1.39.24-.23"/><path class="cls-18" d="M111.89,80.31l16.48,1.39-.2.2-16.48-1.39.2-.2"/><path class="cls-19" d="M111.69,80.51l16.48,1.39-.2.2-16.48-1.39a1.89,1.89,0,0,1,.2-.2"/><path class="cls-20" d="M111.49,80.71,128,82.1l-.2.21-16.48-1.4c.06-.07.13-.13.2-.2"/><path class="cls-21" d="M111.29,80.91l16.48,1.4-.2.21-16.48-1.4.2-.21"/><path class="cls-22" d="M111.09,81.12l16.48,1.4-.2.21-16.48-1.4.2-.21"/><path class="cls-23" d="M110.89,81.33l16.48,1.4-.18.2-16.48-1.39.18-.21"/><path class="cls-24" d="M110.71,81.54l16.48,1.39-.17.19-16.48-1.39a1.54,1.54,0,0,1,.17-.19"/><path class="cls-25" d="M110.54,81.73,127,83.12l-.17.2-16.48-1.4.17-.19"/><path class="cls-26" d="M110.37,81.92l16.48,1.4-.17.19L110.2,82.12l.17-.2"/><path class="cls-27" d="M110.2,82.12l16.48,1.39-.16.2L110,82.32l.16-.2"/><path class="cls-28" d="M110,82.32l16.48,1.39c-.06.07-.11.14-.17.2l-16.48-1.39c.06-.07.11-.14.17-.2"/><path class="cls-29" d="M109.87,82.52l16.48,1.39-.16.21-16.48-1.4.16-.2"/><path class="cls-30" d="M109.71,82.72l16.48,1.4-.14.18-16.48-1.39.14-.19"/><path class="cls-31" d="M109.57,82.91l16.48,1.39-.15.19L109.42,83.1l.15-.19"/><path class="cls-32" d="M109.42,83.1l16.48,1.39-.14.2-16.48-1.4.14-.19"/><path class="cls-33" d="M109.28,83.29l16.48,1.4a1.33,1.33,0,0,0-.14.19l-16.48-1.4.14-.19"/><path class="cls-34" d="M109.14,83.48l16.48,1.4a1.43,1.43,0,0,0-.14.2L109,83.68a2.43,2.43,0,0,1,.14-.2"/><path class="cls-35" d="M109,83.68l16.48,1.4-.14.19-16.48-1.39a2.43,2.43,0,0,1,.14-.2"/><path class="cls-36" d="M108.86,83.88l16.48,1.39-.14.2-16.48-1.39a1.43,1.43,0,0,1,.14-.2"/><path class="cls-37" d="M108.72,84.08l16.48,1.39-.13.19-16.48-1.39c0-.07.09-.13.13-.19"/><path class="cls-38" d="M108.59,84.27l16.48,1.39a2.14,2.14,0,0,1-.13.19l-16.48-1.39.13-.19"/><path class="cls-39" d="M108.46,84.46l16.48,1.39-.12.19-16.48-1.39.12-.19"/><path class="cls-40" d="M108.34,84.65,124.82,86l-.12.19-16.48-1.39.12-.19"/><path class="cls-41" d="M108.22,84.84l16.48,1.39-.13.2L108.09,85l.13-.19"/><path class="cls-42" d="M108.09,85l16.48,1.4-.12.19L108,85.23l.12-.2"/><path class="cls-43" d="M108,85.23l16.48,1.39-.12.2-16.48-1.39.12-.2"/><path class="cls-44" d="M107.85,85.43l16.48,1.39-.11.2-16.48-1.4.11-.19"/><path class="cls-45" d="M107.74,85.62,124.22,87l-.11.19-16.48-1.4.11-.19"/><path class="cls-46" d="M107.63,85.81l16.48,1.4-.11.19L107.52,86a2,2,0,0,1,.11-.2"/><path class="cls-47" d="M107.52,86,124,87.4a2,2,0,0,0-.11.2l-16.48-1.4.11-.19"/><path class="cls-48" d="M107.41,86.2l16.48,1.4-.11.19L107.3,86.4a2,2,0,0,1,.11-.2"/><path class="cls-49" d="M107.3,86.4l16.48,1.39-.11.2-16.48-1.4.11-.19"/><path class="cls-50" d="M107.19,86.59,123.67,88c0,.07-.07.13-.1.2l-16.48-1.4.1-.2"/><path class="cls-51" d="M107.09,86.79l16.48,1.4c0,.06-.07.13-.11.2L107,87c0-.06.07-.13.11-.2"/><path class="cls-52" d="M107,87l16.48,1.4c0,.06-.06.13-.1.2l-16.48-1.4a1.86,1.86,0,0,0,.1-.2"/><path class="cls-53" d="M106.88,87.19l16.48,1.4a1.74,1.74,0,0,1-.1.19l-16.48-1.39a1.86,1.86,0,0,0,.1-.2"/><path class="cls-54" d="M106.78,87.39l16.48,1.39-.09.2-16.48-1.39.09-.2"/><path class="cls-55" d="M106.69,87.59,123.17,89c0,.07-.07.13-.1.2l-16.48-1.4a1.74,1.74,0,0,1,.1-.19"/><path class="cls-56" d="M106.59,87.78l16.48,1.4-.09.2L106.5,88l.09-.21"/><path class="cls-57" d="M106.5,88,123,89.38c0,.07-.07.13-.1.2L106.4,88.19l.1-.2"/><path class="cls-58" d="M106.4,88.19l16.48,1.39-.09.2-16.48-1.39.09-.2"/><path class="cls-59" d="M106.31,88.39l16.48,1.39-.09.21-16.48-1.4.09-.2"/><path class="cls-60" d="M106.22,88.59,122.7,90l-.09.2L106.13,88.8l.09-.21"/><path class="cls-61" d="M106.13,88.8l16.48,1.39-.08.21L106.05,89a1.67,1.67,0,0,1,.08-.2"/><path class="cls-62" d="M106.05,89l16.48,1.4-.09.2L106,89.21l.09-.21"/><path class="cls-63" d="M106,89.21l16.48,1.39a1.8,1.8,0,0,0-.08.21l-16.48-1.4a1.67,1.67,0,0,1,.08-.2"/><path class="cls-64" d="M105.88,89.41l16.48,1.4-.09.21-16.48-1.4.09-.21"/><path class="cls-65" d="M105.79,89.62,122.27,91a1.67,1.67,0,0,1-.08.2l-16.48-1.39a1.8,1.8,0,0,0,.08-.21"/><path class="cls-66" d="M105.71,89.83l16.48,1.39a1.8,1.8,0,0,1-.08.21L105.63,90a1.8,1.8,0,0,0,.08-.21"/><path class="cls-67" d="M105.63,90l16.48,1.39a1.8,1.8,0,0,1-.08.21l-16.48-1.39a1.8,1.8,0,0,0,.08-.21"/><path class="cls-68" d="M105.55,90.25,122,91.64l-.07.22-16.48-1.4c0-.07,0-.14.07-.21"/><path class="cls-69" d="M105.48,90.46,122,91.86l-.08.21L105.4,90.68c0-.08,0-.15.08-.22"/><path class="cls-70" d="M105.4,90.68l16.48,1.39c0,.07,0,.14-.07.22l-16.48-1.4c0-.07,0-.14.07-.21"/><path class="cls-71" d="M105.33,90.89l16.48,1.4-.08.21-16.48-1.39c0-.08,0-.15.08-.22"/><path class="cls-72" d="M105.25,91.11l16.48,1.39a1.87,1.87,0,0,1-.07.22l-16.48-1.4a1.72,1.72,0,0,0,.07-.21"/><path class="cls-73" d="M105.18,91.32l16.48,1.4c0,.07,0,.14-.07.22l-16.48-1.4c0-.07,0-.14.07-.22"/><path class="cls-74" d="M105.11,91.54l16.48,1.4c0,.07,0,.14-.07.22L105,91.76c0-.07,0-.14.07-.22"/><path class="cls-75" d="M105,91.76l16.48,1.4-.06.22L105,92a1.42,1.42,0,0,0,.07-.22"/><path class="cls-76" d="M105,92l16.49,1.4a1.42,1.42,0,0,0-.07.22l-16.48-1.4L105,92"/><path class="cls-77" d="M104.91,92.2l16.48,1.4c0,.07,0,.15-.07.23l-16.48-1.4a2,2,0,0,0,.07-.23"/><path class="cls-78" d="M104.84,92.43l16.48,1.4-.06.22-16.48-1.39.06-.23"/><path class="cls-79" d="M104.78,92.66l16.48,1.39-.06.23-16.48-1.39.06-.23"/><path class="cls-80" d="M104.72,92.89l16.48,1.39-.06.23-16.48-1.39.06-.23"/><path class="cls-81" d="M104.66,93.12l16.48,1.39-.06.24-16.48-1.4.06-.23"/><path class="cls-82" d="M104.6,93.35l16.48,1.4L121,95l-16.48-1.4.06-.23"/><path class="cls-83" d="M104.54,93.58,121,95l-.06.23-16.48-1.39.06-.24"/><path class="cls-84" d="M104.48,93.82,121,95.21c0,.08,0,.16,0,.24l-16.48-1.4c0-.07,0-.15,0-.23"/><path class="cls-85" d="M104.43,94.05l16.48,1.4v0l-16.48-1.39v-.06"/></g></g></g><g class="cls-2"><g class="cls-127"><g class="cls-2"><path class="cls-30" d="M127.93,62.78l16.48,1.4.21,0-16.48-1.4-.21,0"/><path class="cls-31" d="M128.14,62.8l16.48,1.4.25,0-16.48-1.39-.25,0"/><path class="cls-32" d="M128.39,62.83l16.48,1.39.26,0-16.48-1.39-.26,0"/><path class="cls-33" d="M128.65,62.86l16.48,1.39.26,0-16.48-1.39-.26,0"/><path class="cls-34" d="M128.91,62.89l16.48,1.39.25,0-16.48-1.4-.25,0"/><path class="cls-35" d="M129.16,62.92l16.48,1.4.27,0L129.43,63l-.27,0"/><path class="cls-36" d="M129.43,63l16.48,1.4.27,0L129.7,63l-.27,0"/><path class="cls-37" d="M129.7,63l16.48,1.4.27,0L130,63.05l-.27,0"/><path class="cls-38" d="M130,63.05l16.48,1.39.28,0L130.25,63.1l-.28-.05"/><path class="cls-39" d="M130.25,63.1l16.48,1.39.28.06-16.48-1.4-.28,0"/><path class="cls-40" d="M130.53,63.15,147,64.55l.3.06-16.48-1.4-.3-.06"/><path class="cls-41" d="M130.83,63.21l16.48,1.4.3.06-16.48-1.39-.3-.07"/><path class="cls-42" d="M131.13,63.28l16.48,1.39.29.07-16.48-1.4-.29-.06"/><path class="cls-43" d="M131.42,63.34l16.48,1.4.33.07-16.48-1.39-.33-.08"/><path class="cls-44" d="M131.75,63.42l16.48,1.39.34.08L132.09,63.5l-.34-.08"/><path class="cls-45" d="M132.09,63.5l16.48,1.39.34.09-16.48-1.39-.34-.09"/><path class="cls-46" d="M132.43,63.59,148.91,65l.23.06-16.48-1.39-.23-.06"/></g></g></g><polygon class="cls-3" points="149.92 97.71 166.4 99.1 153.05 158.21 136.57 156.81 149.92 97.71"/><path class="cls-90" d="M132.66,63.65c14,3.75,21.17,16.79,17.26,34.06l-13.35,59.1-12.48-3.33,12.15-53.77c2.22-9.85,3-20.77-9.16-24-9.79-2.61-19.82,5.84-22.66,18.43l-11.54,51L80.4,141.81,93.61,83.35c2.19-9.69-.71-16.8-8.08-18.77-11.78-3.15-22.05,5.75-25.74,22.06L49.21,133.47l-12.49-3.34L55.81,45.67l11.77,3.15-2.7,12,.28.08C74,51.74,82.73,50.31,90.82,52.47s14.72,8,16.61,19C118.21,62.35,125,61.6,132.66,63.65Z"/><g class="cls-2"><g class="cls-128"><g class="cls-2"><path class="cls-46" d="M132.66,63.65,149.14,65l.08,0-16.48-1.4-.08,0"/><path class="cls-47" d="M132.74,63.67l16.48,1.4.27.07L133,63.74l-.27-.07"/><path class="cls-48" d="M133,63.74l16.48,1.4.27.08-16.48-1.4-.27-.08"/><path class="cls-49" d="M133.28,63.82l16.48,1.4.27.07L133.55,63.9l-.27-.08"/><path class="cls-50" d="M133.55,63.9,150,65.29l.26.09L133.81,64l-.26-.08"/><path class="cls-51" d="M133.81,64l16.48,1.4.26.08-16.48-1.4-.26-.08"/><path class="cls-52" d="M134.07,64.06l16.48,1.4.26.08-16.48-1.39-.26-.09"/><path class="cls-53" d="M134.33,64.15l16.48,1.39.26.09-16.48-1.39-.26-.09"/><path class="cls-54" d="M134.59,64.24l16.48,1.39.25.09-16.48-1.4-.25-.08"/><path class="cls-55" d="M134.84,64.32l16.48,1.4.24.08-16.48-1.39-.24-.09"/><path class="cls-56" d="M135.08,64.41l16.48,1.39.23.09L135.31,64.5l-.23-.09"/><path class="cls-57" d="M135.31,64.5l16.48,1.39L152,66l-16.48-1.39-.24-.09"/><path class="cls-58" d="M135.55,64.59,152,66l.23.09-16.48-1.39-.23-.09"/><path class="cls-59" d="M135.78,64.68l16.48,1.39.23.1L136,64.77l-.23-.09"/><path class="cls-60" d="M136,64.77l16.48,1.4.23.09-16.48-1.39-.23-.1"/><path class="cls-61" d="M136.24,64.87l16.48,1.39.23.1L136.47,65l-.23-.09"/><path class="cls-62" d="M136.47,65,153,66.36l.23.1-16.49-1.4-.22-.1"/><path class="cls-63" d="M136.69,65.06l16.49,1.4.21.09-16.48-1.39-.22-.1"/><path class="cls-64" d="M136.91,65.16l16.48,1.39.21.1-16.48-1.39-.21-.1"/><path class="cls-65" d="M137.12,65.26l16.48,1.39.21.1-16.48-1.4-.21-.09"/><path class="cls-66" d="M137.33,65.35l16.48,1.4.21.1-16.48-1.39-.21-.11"/><path class="cls-67" d="M137.54,65.46,154,66.85l.21.1-16.48-1.39-.21-.1"/><path class="cls-68" d="M137.75,65.56,154.23,67l.21.11L138,65.66l-.21-.1"/><path class="cls-69" d="M138,65.66l16.48,1.4.2.1-16.48-1.39-.2-.11"/><path class="cls-70" d="M138.16,65.77l16.48,1.39.21.11-16.48-1.39-.21-.11"/><path class="cls-71" d="M138.37,65.88l16.48,1.39.2.11L138.57,66l-.2-.1"/><path class="cls-72" d="M138.57,66l16.48,1.4.19.11-16.48-1.4-.19-.11"/><path class="cls-73" d="M138.76,66.09l16.48,1.4.2.11L139,66.2l-.2-.11"/><path class="cls-74" d="M139,66.2l16.48,1.4.19.11-16.48-1.4L139,66.2"/><path class="cls-75" d="M139.15,66.31l16.48,1.4a1.18,1.18,0,0,1,.19.11l-16.48-1.39-.19-.12"/><path class="cls-76" d="M139.34,66.43l16.48,1.39.19.11-16.48-1.39a1.18,1.18,0,0,0-.19-.11"/><path class="cls-77" d="M139.53,66.54,156,67.93l.19.12-16.48-1.39-.19-.12"/><path class="cls-78" d="M139.72,66.66l16.48,1.39.19.12-16.48-1.4a1.18,1.18,0,0,0-.19-.11"/><path class="cls-79" d="M139.91,66.77l16.48,1.4.19.12-16.48-1.4-.19-.12"/><path class="cls-80" d="M140.1,66.89l16.48,1.4.18.12L140.28,67l-.18-.12"/><path class="cls-81" d="M140.28,67l16.48,1.4.19.12-16.49-1.4-.18-.12"/><path class="cls-82" d="M140.46,67.13,157,68.53l.18.12-16.48-1.39-.19-.13"/><path class="cls-83" d="M140.65,67.26l16.48,1.39.18.13-16.48-1.4-.18-.12"/><path class="cls-84" d="M140.83,67.38l16.48,1.4.18.12L141,67.51l-.18-.13"/><path class="cls-85" d="M141,67.51l16.48,1.39.18.13-16.48-1.39-.18-.13"/><path class="cls-87" d="M141.19,67.64,157.67,69a1.09,1.09,0,0,0,.17.13l-16.48-1.39-.17-.13"/><path class="cls-88" d="M141.36,67.77l16.48,1.39.18.13L141.54,67.9l-.18-.13"/><path class="cls-89" d="M141.54,67.9,158,69.29l.17.14L141.71,68l-.17-.13"/><path class="cls-90" d="M141.71,68l16.48,1.4.18.13-16.48-1.39-.18-.14"/><path class="cls-91" d="M141.89,68.17l16.48,1.39.17.14-16.48-1.39-.17-.14"/><path class="cls-92" d="M142.06,68.31l16.48,1.39.18.15-16.48-1.4-.18-.14"/><path class="cls-93" d="M142.24,68.45l16.48,1.4.17.14-16.48-1.4-.17-.14"/><path class="cls-94" d="M142.41,68.59,158.89,70l.17.15-16.48-1.4-.17-.15"/><path class="cls-95" d="M142.58,68.74l16.48,1.4.18.14-16.48-1.39-.18-.15"/><path class="cls-96" d="M142.76,68.89l16.48,1.39.17.15L142.92,69l-.16-.15"/><path class="cls-97" d="M142.92,69l16.49,1.39.16.15-16.48-1.39-.17-.15"/><path class="cls-98" d="M143.09,69.19l16.48,1.39.17.15-16.48-1.39-.17-.15"/><path class="cls-99" d="M143.26,69.34l16.48,1.39.17.17-16.48-1.4-.17-.16"/><path class="cls-100" d="M143.43,69.5l16.48,1.4.18.16-16.48-1.39-.18-.17"/><path class="cls-101" d="M143.61,69.67l16.48,1.39c.06.06.11.12.17.17l-16.48-1.39-.17-.17"/><path class="cls-102" d="M143.78,69.84l16.48,1.39.18.18L144,70c0-.06-.11-.11-.17-.17"/><path class="cls-103" d="M144,70l16.49,1.4.17.17-16.48-1.4L144,70"/><path class="cls-104" d="M144.13,70.18l16.48,1.4.16.17-16.48-1.39-.16-.18"/><path class="cls-105" d="M144.29,70.36l16.48,1.39.17.18-16.48-1.39-.17-.18"/><path class="cls-106" d="M144.46,70.54l16.48,1.39.17.18-16.48-1.39-.17-.18"/><path class="cls-107" d="M144.63,70.72l16.48,1.39.17.2-16.48-1.4-.17-.19"/><path class="cls-108" d="M144.8,70.91l16.48,1.4.19.21L145,71.12l-.19-.21"/><path class="cls-109" d="M145,71.12l16.48,1.4.18.21-16.48-1.4-.18-.21"/><path class="cls-110" d="M145.17,71.33l16.48,1.4.18.21-16.48-1.39-.18-.22"/><path class="cls-3" d="M145.35,71.55l16.48,1.39.17.22-16.48-1.39-.17-.22"/><path class="cls-111" d="M145.52,71.77,162,73.16l.18.22L145.7,72l-.18-.21"/><path class="cls-112" d="M145.7,72l16.48,1.4.17.22-16.48-1.4a1.84,1.84,0,0,1-.17-.22"/><path class="cls-113" d="M145.87,72.2l16.48,1.4.19.26-16.48-1.4-.19-.26"/><path class="cls-114" d="M146.06,72.46l16.48,1.4a2.83,2.83,0,0,1,.2.28l-16.48-1.4-.2-.28"/><path class="cls-115" d="M146.26,72.74l16.48,1.4a2.83,2.83,0,0,1,.2.28L146.46,73l-.2-.28"/><path class="cls-116" d="M146.46,73l16.48,1.4.2.28-16.48-1.39c-.06-.1-.13-.19-.2-.29"/><path class="cls-117" d="M146.66,73.31l16.48,1.39.19.29L146.85,73.6l-.19-.29"/><path class="cls-118" d="M146.85,73.6,163.33,75l.19.3L147,73.89l-.19-.29"/><path class="cls-119" d="M147,73.89l16.48,1.4.25.41-16.48-1.4-.25-.41"/><path class="cls-120" d="M147.29,74.3l16.48,1.4c.09.14.17.28.25.42l-16.48-1.4c-.08-.14-.16-.28-.25-.42"/><path class="cls-121" d="M147.54,74.72,164,76.12l.24.42-16.48-1.39-.24-.43"/><path class="cls-122" d="M147.78,75.15l16.48,1.39.23.43L148,75.58l-.23-.43"/><path class="cls-123" d="M148,75.58,164.49,77l.37.75-16.48-1.39-.37-.75"/><path class="cls-124" d="M148.38,76.33l16.48,1.39.36.8-16.48-1.4-.36-.79"/><path class="cls-125" d="M148.74,77.12l16.48,1.4a24.9,24.9,0,0,1,1.25,3.62L150,80.74a24.9,24.9,0,0,0-1.25-3.62"/><path class="cls-124" d="M150,80.74l16.48,1.4c.1.35.18.7.26,1.06l-16.48-1.4c-.08-.36-.17-.71-.26-1.06"/><path class="cls-123" d="M150.25,81.8l16.48,1.4c.06.24.11.48.16.73l-16.48-1.39c0-.25-.1-.5-.16-.74"/><path class="cls-122" d="M150.41,82.54l16.48,1.39c0,.25.09.49.13.74l-16.48-1.39c0-.25-.09-.5-.13-.74"/><path class="cls-121" d="M150.54,83.28,167,84.67l.09.57-16.48-1.4-.09-.56"/><path class="cls-120" d="M150.63,83.84l16.48,1.4c0,.17,0,.34.08.51l-16.49-1.4c0-.17,0-.34-.07-.51"/><path class="cls-119" d="M150.7,84.35l16.49,1.4.06.52-16.48-1.4c0-.17,0-.34-.07-.52"/><path class="cls-118" d="M150.77,84.87l16.48,1.4.06.52-16.48-1.4-.06-.52"/><path class="cls-117" d="M150.83,85.39l16.48,1.4c0,.15,0,.31,0,.47l-16.48-1.4c0-.16,0-.31,0-.47"/><path class="cls-116" d="M150.87,85.86l16.48,1.4c0,.13,0,.28,0,.42l-16.48-1.4,0-.42"/><path class="cls-115" d="M150.9,86.28l16.48,1.4,0,.42-16.48-1.4,0-.42"/><path class="cls-114" d="M150.93,86.7l16.48,1.4c0,.14,0,.28,0,.43L151,87.13c0-.14,0-.28,0-.43"/><path class="cls-113" d="M151,87.13l16.48,1.4c0,.14,0,.28,0,.42L151,87.56c0-.14,0-.29,0-.43"/><path class="cls-112" d="M151,87.56,167.45,89c0,.14,0,.28,0,.42L151,88c0-.14,0-.28,0-.42"/><path class="cls-111" d="M151,88l16.48,1.39v.38L151,88.35V88"/><path class="cls-3" d="M151,88.35l16.48,1.4v.38L151,88.73v-.38"/><path class="cls-110" d="M151,88.73l16.48,1.4v.38L151,89.11v-.38"/><path class="cls-109" d="M151,89.11l16.48,1.4c0,.13,0,.25,0,.38L151,89.5c0-.13,0-.26,0-.39"/><path class="cls-108" d="M151,89.5l16.48,1.39c0,.13,0,.26,0,.39L151,89.88c0-.13,0-.26,0-.38"/><path class="cls-107" d="M151,89.88l16.48,1.4c0,.12,0,.25,0,.38L151,90.26c0-.12,0-.25,0-.38"/><path class="cls-106" d="M151,90.26l16.48,1.4c0,.12,0,.24,0,.36l-16.48-1.4c0-.12,0-.24,0-.36"/><path class="cls-105" d="M150.93,90.62,167.41,92c0,.11,0,.23,0,.35L150.91,91c0-.12,0-.24,0-.36"/><path class="cls-104" d="M150.91,91l16.48,1.39c0,.12,0,.24,0,.36l-16.48-1.39c0-.12,0-.24,0-.36"/><path class="cls-103" d="M150.89,91.34l16.48,1.39,0,.36L150.86,91.7l0-.36"/><path class="cls-102" d="M150.86,91.7l16.48,1.39,0,.37-16.48-1.4,0-.36"/><path class="cls-101" d="M150.83,92.06l16.48,1.4c0,.12,0,.24,0,.36l-16.48-1.39c0-.13,0-.25,0-.37"/><path class="cls-100" d="M150.79,92.43l16.48,1.39c0,.12,0,.24,0,.36l-16.48-1.39c0-.12,0-.24,0-.36"/><path class="cls-99" d="M150.75,92.79l16.48,1.39c0,.12,0,.24,0,.35l-16.48-1.39c0-.12,0-.24,0-.35"/><path class="cls-98" d="M150.71,93.14l16.48,1.39c0,.12,0,.24,0,.36l-16.48-1.4c0-.12,0-.24,0-.35"/><path class="cls-97" d="M150.67,93.49l16.48,1.4c0,.11,0,.23-.05.35l-16.48-1.4c0-.11,0-.23,0-.35"/><path class="cls-96" d="M150.62,93.84l16.48,1.4c0,.12,0,.24,0,.36l-16.48-1.4c0-.12,0-.24.05-.36"/><path class="cls-95" d="M150.57,94.2l16.48,1.4c0,.11,0,.23-.05.35l-16.48-1.39c0-.12,0-.24,0-.36"/><path class="cls-94" d="M150.52,94.56,167,96c0,.12,0,.24-.05.36l-16.48-1.39c0-.12,0-.24.05-.36"/><path class="cls-93" d="M150.47,94.92,167,96.31l-.06.36-16.48-1.4.06-.35"/><path class="cls-92" d="M150.41,95.27l16.48,1.4c0,.12,0,.24-.07.35l-16.48-1.39c0-.12,0-.24.07-.36"/><path class="cls-91" d="M150.34,95.63,166.82,97l-.06.36L150.28,96l.06-.36"/><path class="cls-90" d="M150.28,96l16.48,1.39c0,.12,0,.24-.07.36l-16.48-1.39c0-.12,0-.24.07-.36"/><path class="cls-89" d="M150.21,96.35l16.48,1.39c0,.12-.05.24-.07.36l-16.48-1.4c0-.12.05-.24.07-.35"/><path class="cls-88" d="M150.14,96.7l16.48,1.4c0,.12-.05.24-.08.36l-16.48-1.39c0-.12.05-.24.08-.37"/><path class="cls-87" d="M150.06,97.07l16.48,1.39c0,.12,0,.24-.07.36L150,97.43c0-.12,0-.24.07-.36"/><path class="cls-85" d="M150,97.43l16.48,1.39c0,.1-.05.19-.07.28l-16.48-1.39.07-.28"/></g></g></g></g><g class="cls-2"><polygon class="cls-3" points="59.79 86.64 76.27 88.03 65.69 134.86 49.21 133.47 59.79 86.64"/><polygon class="cls-4" points="64.88 60.77 81.36 62.16 81.64 62.24 65.16 60.84 64.88 60.77"/><polygon class="cls-4" points="55.81 45.67 72.29 47.07 84.06 50.21 67.58 48.82 55.81 45.67"/><polygon class="cls-3" points="67.58 48.82 84.06 50.21 81.36 62.16 64.88 60.77 67.58 48.82"/><g class="cls-2"><g class="cls-5"><g class="cls-2"><path class="cls-6" d="M82.32,64l16.48,1.4A16.44,16.44,0,0,0,89,67.66L72.48,66.27A16.45,16.45,0,0,1,82.32,64"/><path class="cls-7" d="M72.48,66.27,89,67.66l-.54.33-16.48-1.4.54-.32"/><path class="cls-8" d="M71.94,66.59,88.42,68l-.5.33L71.43,66.93l.51-.34"/><path class="cls-9" d="M71.43,66.93l16.49,1.39-.48.33L71,67.26l.47-.33"/><path class="cls-10" d="M71,67.26l16.48,1.39-.32.24-16.48-1.4.32-.23"/><path class="cls-11" d="M70.64,67.49l16.48,1.4-.31.24L70.33,67.74l.31-.25"/><path class="cls-12" d="M70.33,67.74l16.48,1.39-.31.25L70,68l.31-.25"/><path class="cls-13" d="M70,68,86.5,69.38l-.31.26-16.48-1.4L70,68"/><path class="cls-14" d="M69.71,68.24l16.48,1.4-.26.22-16.48-1.4.26-.22"/><path class="cls-15" d="M69.45,68.46l16.48,1.4-.23.21-16.48-1.4.23-.21"/><path class="cls-16" d="M69.22,68.67l16.48,1.4-.24.21L69,68.89l.24-.22"/><path class="cls-17" d="M69,68.89l16.48,1.39-.23.22L68.75,69.11l.23-.22"/><path class="cls-18" d="M68.75,69.11,85.23,70.5l-.23.23-16.48-1.4.23-.22"/><path class="cls-19" d="M68.52,69.33,85,70.73l-.22.22L68.29,69.56c.08-.08.16-.15.23-.23"/><path class="cls-20" d="M68.29,69.56,84.78,71l-.2.2L68.1,69.76l.19-.2"/><path class="cls-21" d="M68.1,69.76l16.48,1.39-.19.2L67.91,70l.19-.2"/><path class="cls-22" d="M67.91,70l16.48,1.39-.19.21-16.48-1.4.19-.2"/><path class="cls-23" d="M67.72,70.16l16.48,1.4-.19.2L67.53,70.37l.19-.21"/><path class="cls-24" d="M67.53,70.37,84,71.76l-.19.22-16.48-1.4.19-.21"/><path class="cls-25" d="M67.34,70.58,83.82,72l-.18.21-16.48-1.4.18-.21"/><path class="cls-26" d="M67.16,70.79l16.48,1.4-.18.21L67,71l.18-.21"/><path class="cls-27" d="M67,71l16.48,1.4-.16.2L66.81,71.2A1.63,1.63,0,0,0,67,71"/><path class="cls-28" d="M66.81,71.2,83.3,72.6l-.17.2L66.65,71.41l.16-.21"/><path class="cls-29" d="M66.65,71.41,83.13,72.8,83,73l-16.48-1.4.16-.2"/><path class="cls-30" d="M66.49,71.61,83,73l-.17.21-16.48-1.4.17-.21"/><path class="cls-31" d="M66.32,71.82l16.48,1.4-.16.21L66.16,72l.16-.21"/><path class="cls-32" d="M66.16,72l16.48,1.4-.16.21L66,72.25l.16-.22"/><path class="cls-33" d="M66,72.25l16.48,1.39-.15.22-16.48-1.4.15-.21"/><path class="cls-34" d="M65.85,72.46l16.48,1.4-.15.2L65.7,72.67l.15-.21"/><path class="cls-35" d="M65.7,72.67l16.48,1.39-.15.21L65.55,72.88l.15-.21"/><path class="cls-36" d="M65.55,72.88,82,74.27l-.15.22L65.4,73.09l.15-.21"/><path class="cls-37" d="M65.4,73.09l16.48,1.4-.14.21L65.26,73.31a1.64,1.64,0,0,1,.14-.22"/><path class="cls-38" d="M65.26,73.31,81.74,74.7l-.15.22-16.48-1.4.15-.21"/><path class="cls-39" d="M65.11,73.52l16.48,1.4-.14.22L65,73.74l.14-.22"/><path class="cls-40" d="M65,73.74l16.48,1.4a1.64,1.64,0,0,0-.14.22L64.83,74l.14-.22"/><path class="cls-41" d="M64.83,74l16.48,1.4-.14.22L64.69,74.19c0-.08.09-.15.14-.23"/><path class="cls-42" d="M64.69,74.19l16.48,1.39L81,75.8,64.55,74.41l.14-.22"/><path class="cls-43" d="M64.55,74.41,81,75.8,80.9,76l-16.48-1.4.13-.22"/><path class="cls-44" d="M64.42,74.63,80.9,76l-.14.22L64.28,74.86l.14-.23"/><path class="cls-45" d="M64.28,74.86l16.48,1.39-.13.23L64.15,75.09l.13-.23"/><path class="cls-46" d="M64.15,75.09l16.48,1.39-.13.23L64,75.32a1.71,1.71,0,0,1,.13-.23"/><path class="cls-47" d="M64,75.32,80.5,76.71l-.13.23L63.89,75.55a1.71,1.71,0,0,1,.13-.23"/><path class="cls-48" d="M63.89,75.55l16.48,1.39c-.05.08-.09.16-.13.24l-16.48-1.4.13-.23"/><path class="cls-49" d="M63.76,75.78l16.48,1.4-.13.23L63.63,76c0-.08.08-.16.13-.24"/><path class="cls-50" d="M63.63,76l16.48,1.39c0,.08-.09.16-.13.25L63.5,76.26l.13-.24"/><path class="cls-51" d="M63.5,76.26,80,77.66l-.12.24L63.38,76.5l.12-.24"/><path class="cls-52" d="M63.38,76.5l16.48,1.4c0,.08-.09.16-.13.24L63.25,76.75c0-.08.08-.17.13-.25"/><path class="cls-53" d="M63.25,76.75l16.48,1.39-.12.25L63.13,77l.12-.24"/><path class="cls-54" d="M63.13,77l16.48,1.4-.12.25L63,77.24l.12-.25"/><path class="cls-55" d="M63,77.24l16.48,1.4-.12.25-16.48-1.4.12-.25"/><path class="cls-56" d="M62.89,77.49l16.48,1.4-.12.25L62.77,77.75l.12-.26"/><path class="cls-57" d="M62.77,77.75l16.48,1.39-.12.26L62.65,78l.12-.26"/><path class="cls-58" d="M62.65,78,79.13,79.4l-.12.27-16.48-1.4.12-.26"/><path class="cls-59" d="M62.53,78.27,79,79.67l-.12.26L62.41,78.54l.12-.27"/><path class="cls-60" d="M62.41,78.54l16.48,1.39-.12.27L62.29,78.81l.12-.27"/><path class="cls-61" d="M62.29,78.81,78.77,80.2c0,.09-.07.18-.11.27L62.18,79.08c0-.09.07-.19.11-.27"/><path class="cls-62" d="M62.18,79.08l16.48,1.39c0,.09-.08.18-.11.27L62.07,79.35c0-.09.07-.18.11-.27"/><path class="cls-63" d="M62.07,79.35l16.48,1.39-.12.28L62,79.62l.12-.27"/><path class="cls-64" d="M62,79.62,78.43,81c0,.09-.07.18-.11.28L61.84,79.9a2.33,2.33,0,0,0,.11-.28"/><path class="cls-65" d="M61.84,79.9l16.48,1.4c0,.09-.07.19-.11.29l-16.48-1.4c0-.09.07-.19.11-.29"/><path class="cls-66" d="M61.73,80.19l16.48,1.4c0,.1-.08.19-.11.29L61.62,80.49c0-.1.07-.2.11-.3"/><path class="cls-67" d="M61.62,80.49,78.1,81.88c0,.1-.08.2-.11.3l-16.48-1.4c0-.1.07-.19.11-.29"/><path class="cls-68" d="M61.51,80.78,78,82.18c0,.1-.08.2-.11.3L61.4,81.08c0-.1.07-.2.11-.3"/><path class="cls-69" d="M61.4,81.08l16.48,1.4-.11.3-16.48-1.4.11-.3"/><path class="cls-70" d="M61.29,81.38l16.48,1.4-.1.3-16.48-1.4c0-.1.07-.2.1-.3"/><path class="cls-71" d="M61.19,81.68l16.48,1.4-.11.3L61.08,82c0-.1.07-.21.11-.31"/><path class="cls-72" d="M61.08,82l16.48,1.39c0,.11-.07.22-.1.33L61,82.31c0-.11.07-.21.1-.32"/><path class="cls-73" d="M61,82.31l16.48,1.4c0,.11-.07.22-.11.33l-16.48-1.4c0-.11.07-.22.11-.33"/><path class="cls-74" d="M60.87,82.64,77.35,84c0,.1-.07.21-.1.32L60.77,83c0-.11.07-.22.1-.33"/><path class="cls-75" d="M60.77,83l16.48,1.39c0,.11-.07.23-.1.34L60.67,83.3c0-.11.06-.22.1-.33"/><path class="cls-76" d="M60.67,83.3l16.48,1.4c0,.11-.07.22-.1.33L60.57,83.64a3.37,3.37,0,0,1,.1-.34"/><path class="cls-77" d="M60.57,83.64,77.05,85c0,.11-.07.23-.1.34L60.47,84c0-.11.06-.22.1-.33"/><path class="cls-78" d="M60.47,84,77,85.37l-.1.34L60.37,84.32c0-.12.07-.23.1-.35"/><path class="cls-79" d="M60.37,84.32l16.48,1.39c0,.12-.06.24-.1.37l-16.48-1.4c0-.12.07-.24.1-.36"/><path class="cls-80" d="M60.27,84.68l16.48,1.4-.09.37-16.48-1.4.09-.37"/><path class="cls-81" d="M60.18,85.05l16.48,1.4c0,.12-.07.24-.1.37l-16.48-1.4c0-.12.06-.25.1-.37"/><path class="cls-82" d="M60.08,85.42l16.48,1.4-.09.37L60,85.8l.09-.38"/><path class="cls-83" d="M60,85.8l16.48,1.39-.09.38L59.9,86.17,60,85.8"/><path class="cls-84" d="M59.9,86.17l16.48,1.4-.09.38-16.48-1.4.09-.38"/><path class="cls-85" d="M59.81,86.55,76.29,88l0,.08L59.79,86.64l0-.09"/></g></g></g><polygon class="cls-3" points="104.42 94.11 120.9 95.5 109.36 146.53 92.88 145.14 104.42 94.11"/><g class="cls-2"><g class="cls-86"><g class="cls-2"><path class="cls-30" d="M86.3,51.67l16.48,1.39.22,0-16.48-1.4H86.3"/><path class="cls-31" d="M86.52,51.68,103,53.08l.28,0L86.8,51.71l-.28,0"/><path class="cls-32" d="M86.8,51.71l16.48,1.4.28,0-16.48-1.4-.28,0"/><path class="cls-33" d="M87.08,51.74l16.48,1.4.27,0L87.35,51.78l-.27,0"/><path class="cls-34" d="M87.35,51.78l16.48,1.39.28,0-16.48-1.4-.28,0"/><path class="cls-35" d="M87.63,51.81l16.48,1.4.27,0L87.9,51.85l-.27,0"/><path class="cls-36" d="M87.9,51.85l16.48,1.4.27,0L88.17,51.9l-.27,0"/><path class="cls-37" d="M88.17,51.9l16.48,1.39.27.05-16.48-1.4-.27,0"/><path class="cls-38" d="M88.44,51.94l16.48,1.4.28,0L88.72,52l-.28-.05"/><path class="cls-39" d="M88.72,52l16.48,1.4.27,0L89,52l-.27,0"/><path class="cls-40" d="M89,52l16.48,1.4.27.05L89.26,52.1,89,52"/><path class="cls-41" d="M89.26,52.1l16.48,1.39.27.06-16.48-1.4-.27,0"/><path class="cls-42" d="M89.53,52.15,106,53.55l.27.06L89.8,52.22l-.27-.07"/><path class="cls-43" d="M89.8,52.22l16.48,1.39.28.06L90.08,52.28l-.28-.06"/><path class="cls-44" d="M90.08,52.28l16.48,1.39.27.07L90.35,52.35l-.27-.07"/><path class="cls-45" d="M90.35,52.35l16.48,1.39.28.07L90.63,52.42l-.28-.07"/><path class="cls-46" d="M90.63,52.42l16.48,1.39.19,0,.07,0L90.89,52.49l-.07,0-.19,0"/><path class="cls-47" d="M90.89,52.49l16.48,1.39.25.07-16.48-1.4-.25-.06"/><path class="cls-48" d="M91.14,52.55,107.62,54l.24.07-16.48-1.4-.24-.07"/><path class="cls-49" d="M91.38,52.62,107.86,54l.24.07L91.62,52.7l-.24-.08"/><path class="cls-50" d="M91.62,52.7l16.48,1.39.25.08-16.49-1.4-.24-.07"/><path class="cls-51" d="M91.86,52.77l16.49,1.4.23.07L92.1,52.85l-.24-.08"/><path class="cls-52" d="M92.1,52.85l16.48,1.39.23.07L92.33,52.92l-.23-.07"/><path class="cls-53" d="M92.33,52.92l16.48,1.39.22.08L92.55,53l-.22-.08"/><path class="cls-54" d="M92.55,53,109,54.39l.22.08-16.48-1.4L92.55,53"/><path class="cls-55" d="M92.77,53.07l16.48,1.4.23.08L93,53.15l-.23-.08"/><path class="cls-56" d="M93,53.15l16.48,1.4.22.08L93.22,53.24,93,53.15"/><path class="cls-57" d="M93.22,53.24l16.48,1.39.21.08L93.43,53.32l-.21-.08"/><path class="cls-58" d="M93.43,53.32l16.48,1.39.2.08L93.63,53.4l-.2-.08"/><path class="cls-59" d="M93.63,53.4l16.48,1.39.21.09-16.48-1.4-.21-.08"/><path class="cls-60" d="M93.84,53.48l16.48,1.4.21.08L94.05,53.57l-.21-.09"/><path class="cls-61" d="M94.05,53.57,110.53,55l.2.09-16.48-1.4-.2-.08"/><path class="cls-62" d="M94.25,53.65l16.48,1.4.2.09-16.48-1.4-.2-.09"/><path class="cls-63" d="M94.45,53.74l16.48,1.4.2.08L94.65,53.83l-.2-.09"/><path class="cls-64" d="M94.65,53.83l16.48,1.39.19.09L94.84,53.92l-.19-.09"/><path class="cls-65" d="M94.84,53.92l16.48,1.39.19.09L95,54l-.19-.09"/><path class="cls-66" d="M95,54l16.48,1.39.19.09L95.22,54.1,95,54"/><path class="cls-67" d="M95.22,54.1l16.48,1.39.19.1-16.48-1.4-.19-.09"/><path class="cls-68" d="M95.41,54.19l16.48,1.4.19.09L95.6,54.28l-.19-.09"/><path class="cls-69" d="M95.6,54.28l16.48,1.4.18.09L95.78,54.38l-.18-.1"/><path class="cls-70" d="M95.78,54.38l16.48,1.39.18.1L96,54.47l-.18-.09"/><path class="cls-71" d="M96,54.47l16.48,1.4.18.1-16.48-1.4-.18-.1"/><path class="cls-72" d="M96.14,54.57,112.62,56l.18.09L96.32,54.67l-.18-.1"/><path class="cls-73" d="M96.32,54.67l16.48,1.39.18.1L96.5,54.77l-.18-.1"/><path class="cls-74" d="M96.5,54.77,113,56.16a1,1,0,0,0,.17.1L96.67,54.87l-.17-.1"/><path class="cls-75" d="M96.67,54.87l16.48,1.39.17.11L96.84,55l-.17-.1"/><path class="cls-76" d="M96.84,55l16.48,1.4a1,1,0,0,1,.17.1L97,55.07l-.17-.1"/><path class="cls-77" d="M97,55.07l16.48,1.4.17.1L97.18,55.18,97,55.07"/><path class="cls-78" d="M97.18,55.18l16.48,1.39.17.11-16.48-1.4-.17-.1"/><path class="cls-79" d="M97.35,55.28l16.48,1.4.17.11-16.48-1.4-.17-.11"/><path class="cls-80" d="M97.52,55.39,114,56.79l.17.1L97.69,55.5l-.17-.11"/><path class="cls-81" d="M97.69,55.5l16.48,1.39.16.11L97.85,55.61l-.16-.11"/><path class="cls-82" d="M97.85,55.61,114.33,57l.17.11L98,55.72l-.17-.11"/><path class="cls-83" d="M98,55.72l16.48,1.39.16.12-16.48-1.4L98,55.72"/><path class="cls-84" d="M98.18,55.83l16.48,1.4.16.11L98.34,56l-.16-.12"/><path class="cls-85" d="M98.34,56l16.48,1.39.16.12L98.5,56.06,98.34,56"/><path class="cls-87" d="M98.5,56.06,115,57.46l.16.12-16.48-1.4-.16-.12"/><path class="cls-88" d="M98.66,56.18l16.48,1.4a.61.61,0,0,1,.16.12L98.82,56.3l-.16-.12"/><path class="cls-89" d="M98.82,56.3l16.48,1.4.16.12L99,56.42l-.16-.12"/><path class="cls-90" d="M99,56.42l16.48,1.4.16.12-16.48-1.4L99,56.42"/><path class="cls-91" d="M99.14,56.54l16.48,1.4.16.12L99.3,56.67l-.16-.13"/><path class="cls-92" d="M99.3,56.67l16.48,1.39.15.13L99.45,56.8l-.15-.13"/><path class="cls-93" d="M99.45,56.8l16.48,1.39.16.13-16.48-1.4-.16-.12"/><path class="cls-94" d="M99.61,56.92l16.48,1.4.16.13L99.76,57.06l-.15-.14"/><path class="cls-95" d="M99.76,57.06l16.49,1.39.15.14-16.48-1.4-.16-.13"/><path class="cls-96" d="M99.92,57.19l16.48,1.4.16.13-16.48-1.39-.16-.14"/><path class="cls-97" d="M100.08,57.33l16.48,1.39.15.14-16.48-1.39-.15-.14"/><path class="cls-98" d="M100.23,57.47l16.48,1.39.16.14-16.48-1.39-.16-.14"/><path class="cls-99" d="M100.39,57.61,116.87,59l.15.15-16.48-1.4-.15-.14"/><path class="cls-100" d="M100.54,57.75,117,59.15l.16.15L100.7,57.9l-.16-.15"/><path class="cls-101" d="M100.7,57.9l16.48,1.4.16.15-16.49-1.39-.15-.16"/><path class="cls-102" d="M100.85,58.06l16.49,1.39.15.16L101,58.21l-.16-.15"/><path class="cls-103" d="M101,58.21l16.48,1.4.16.16-16.48-1.4-.16-.16"/><path class="cls-104" d="M101.17,58.37l16.48,1.4.15.16-16.48-1.4-.15-.16"/><path class="cls-105" d="M101.32,58.53l16.48,1.4.16.16-16.49-1.4-.15-.16"/><path class="cls-106" d="M101.47,58.69,118,60.09l.16.18-16.48-1.4-.17-.18"/><path class="cls-107" d="M101.64,58.87l16.48,1.4.16.18-16.48-1.4-.16-.18"/><path class="cls-108" d="M101.8,59.05l16.48,1.4.16.18L102,59.24c0-.07-.11-.13-.16-.19"/><path class="cls-109" d="M102,59.24l16.48,1.39c0,.06.11.12.16.19l-16.48-1.4-.16-.18"/><path class="cls-110" d="M102.12,59.42l16.48,1.4.16.18-16.48-1.39-.16-.19"/><path class="cls-3" d="M102.28,59.61,118.76,61l.17.21-16.48-1.39-.17-.21"/><path class="cls-111" d="M102.45,59.82l16.48,1.39.17.22L102.62,60a1.84,1.84,0,0,0-.17-.22"/><path class="cls-112" d="M102.62,60l16.48,1.39.17.22-16.48-1.39a1.84,1.84,0,0,0-.17-.22"/><path class="cls-113" d="M102.79,60.26l16.48,1.39c.06.08.12.15.17.23L103,60.48l-.17-.22"/><path class="cls-114" d="M103,60.48l16.48,1.4a2,2,0,0,1,.17.23l-16.48-1.4-.17-.23"/><path class="cls-115" d="M103.13,60.71l16.48,1.4.19.27L103.32,61a2.75,2.75,0,0,0-.19-.28"/><path class="cls-116" d="M103.32,61l16.48,1.39a2.75,2.75,0,0,1,.19.28l-16.48-1.4-.19-.27"/><path class="cls-117" d="M103.51,61.26,120,62.66a2.75,2.75,0,0,1,.19.28l-16.48-1.4c-.06-.09-.12-.19-.19-.28"/><path class="cls-118" d="M103.7,61.54l16.48,1.4.19.3-16.48-1.4-.19-.3"/><path class="cls-119" d="M103.89,61.84l16.48,1.4.23.36-16.48-1.39-.23-.37"/><path class="cls-120" d="M104.12,62.21,120.6,63.6l.22.38-16.48-1.4-.22-.37"/><path class="cls-121" d="M104.34,62.58,120.82,64l.22.38L104.56,63c-.08-.13-.15-.26-.22-.39"/><path class="cls-122" d="M104.56,63,121,64.36l.29.55-16.48-1.4c-.1-.18-.2-.36-.29-.54"/><path class="cls-123" d="M104.85,63.51l16.48,1.4.27.55-16.48-1.39-.27-.56"/><path class="cls-124" d="M105.12,64.07l16.48,1.39c.15.3.28.6.42.9L105.53,65c-.13-.31-.26-.61-.41-.9"/><path class="cls-125" d="M105.53,65,122,66.36a28,28,0,0,1,1.33,3.88l-16.49-1.39A25.24,25.24,0,0,0,105.53,65"/><path class="cls-124" d="M106.86,68.85l16.49,1.39.27,1.13L107.14,70c-.09-.39-.18-.76-.28-1.13"/><path class="cls-123" d="M107.14,70l16.48,1.39c.06.27.11.53.16.8l-16.48-1.4c0-.26-.1-.53-.16-.79"/><path class="cls-122" d="M107.3,70.77l16.48,1.4c0,.23.09.46.13.69l-16.48-1.4c0-.23-.08-.46-.13-.69"/></g></g></g><g class="cls-2"><g class="cls-126"><g class="cls-2"><path class="cls-6" d="M124.64,75.26l16.48,1.39a15.19,15.19,0,0,0-9,2.18l-16.48-1.4a15.11,15.11,0,0,1,9-2.17"/><path class="cls-7" d="M115.66,77.43l16.48,1.4-.55.33-16.48-1.39.55-.34"/><path class="cls-8" d="M115.11,77.77l16.48,1.39-.54.36-16.48-1.4.54-.35"/><path class="cls-9" d="M114.57,78.12l16.48,1.4-.41.28-16.48-1.39.41-.29"/><path class="cls-10" d="M114.16,78.41l16.48,1.39-.34.26-16.48-1.4.34-.25"/><path class="cls-11" d="M113.82,78.66l16.48,1.4c-.12.08-.23.17-.34.26l-16.48-1.39.34-.27"/><path class="cls-12" d="M113.48,78.93,130,80.32l-.34.27L113.14,79.2a2.88,2.88,0,0,1,.34-.27"/><path class="cls-13" d="M113.14,79.2l16.48,1.39-.26.22-16.48-1.4.26-.21"/><path class="cls-14" d="M112.88,79.41l16.48,1.4-.25.21-16.48-1.39.25-.22"/><path class="cls-15" d="M112.63,79.63,129.11,81l-.25.23-16.48-1.4.25-.22"/><path class="cls-16" d="M112.38,79.85l16.48,1.4-.25.23-16.48-1.4.25-.23"/><path class="cls-17" d="M112.13,80.08l16.48,1.4-.24.22-16.48-1.39.24-.23"/><path class="cls-18" d="M111.89,80.31l16.48,1.39-.2.2-16.48-1.39.2-.2"/><path class="cls-19" d="M111.69,80.51l16.48,1.39-.2.2-16.48-1.39a1.89,1.89,0,0,1,.2-.2"/><path class="cls-20" d="M111.49,80.71,128,82.1l-.2.21-16.48-1.4c.06-.07.13-.13.2-.2"/><path class="cls-21" d="M111.29,80.91l16.48,1.4-.2.21-16.48-1.4.2-.21"/><path class="cls-22" d="M111.09,81.12l16.48,1.4-.2.21-16.48-1.4.2-.21"/><path class="cls-23" d="M110.89,81.33l16.48,1.4-.18.2-16.48-1.39.18-.21"/><path class="cls-24" d="M110.71,81.54l16.48,1.39-.17.19-16.48-1.39a1.54,1.54,0,0,1,.17-.19"/><path class="cls-25" d="M110.54,81.73,127,83.12l-.17.2-16.48-1.4.17-.19"/><path class="cls-26" d="M110.37,81.92l16.48,1.4-.17.19L110.2,82.12l.17-.2"/><path class="cls-27" d="M110.2,82.12l16.48,1.39-.16.2L110,82.32l.16-.2"/><path class="cls-28" d="M110,82.32l16.48,1.39c-.06.07-.11.14-.17.2l-16.48-1.39c.06-.07.11-.14.17-.2"/><path class="cls-29" d="M109.87,82.52l16.48,1.39-.16.21-16.48-1.4.16-.2"/><path class="cls-30" d="M109.71,82.72l16.48,1.4-.14.18-16.48-1.39.14-.19"/><path class="cls-31" d="M109.57,82.91l16.48,1.39-.15.19L109.42,83.1l.15-.19"/><path class="cls-32" d="M109.42,83.1l16.48,1.39-.14.2-16.48-1.4.14-.19"/><path class="cls-33" d="M109.28,83.29l16.48,1.4a1.33,1.33,0,0,0-.14.19l-16.48-1.4.14-.19"/><path class="cls-34" d="M109.14,83.48l16.48,1.4a1.43,1.43,0,0,0-.14.2L109,83.68a2.43,2.43,0,0,1,.14-.2"/><path class="cls-35" d="M109,83.68l16.48,1.4-.14.19-16.48-1.39a2.43,2.43,0,0,1,.14-.2"/><path class="cls-36" d="M108.86,83.88l16.48,1.39-.14.2-16.48-1.39a1.43,1.43,0,0,1,.14-.2"/><path class="cls-37" d="M108.72,84.08l16.48,1.39-.13.19-16.48-1.39c0-.07.09-.13.13-.19"/><path class="cls-38" d="M108.59,84.27l16.48,1.39a2.14,2.14,0,0,1-.13.19l-16.48-1.39.13-.19"/><path class="cls-39" d="M108.46,84.46l16.48,1.39-.12.19-16.48-1.39.12-.19"/><path class="cls-40" d="M108.34,84.65,124.82,86l-.12.19-16.48-1.39.12-.19"/><path class="cls-41" d="M108.22,84.84l16.48,1.39-.13.2L108.09,85l.13-.19"/><path class="cls-42" d="M108.09,85l16.48,1.4-.12.19L108,85.23l.12-.2"/><path class="cls-43" d="M108,85.23l16.48,1.39-.12.2-16.48-1.39.12-.2"/><path class="cls-44" d="M107.85,85.43l16.48,1.39-.11.2-16.48-1.4.11-.19"/><path class="cls-45" d="M107.74,85.62,124.22,87l-.11.19-16.48-1.4.11-.19"/><path class="cls-46" d="M107.63,85.81l16.48,1.4-.11.19L107.52,86a2,2,0,0,1,.11-.2"/><path class="cls-47" d="M107.52,86,124,87.4a2,2,0,0,0-.11.2l-16.48-1.4.11-.19"/><path class="cls-48" d="M107.41,86.2l16.48,1.4-.11.19L107.3,86.4a2,2,0,0,1,.11-.2"/><path class="cls-49" d="M107.3,86.4l16.48,1.39-.11.2-16.48-1.4.11-.19"/><path class="cls-50" d="M107.19,86.59,123.67,88c0,.07-.07.13-.1.2l-16.48-1.4.1-.2"/><path class="cls-51" d="M107.09,86.79l16.48,1.4c0,.06-.07.13-.11.2L107,87c0-.06.07-.13.11-.2"/><path class="cls-52" d="M107,87l16.48,1.4c0,.06-.06.13-.1.2l-16.48-1.4a1.86,1.86,0,0,0,.1-.2"/><path class="cls-53" d="M106.88,87.19l16.48,1.4a1.74,1.74,0,0,1-.1.19l-16.48-1.39a1.86,1.86,0,0,0,.1-.2"/><path class="cls-54" d="M106.78,87.39l16.48,1.39-.09.2-16.48-1.39.09-.2"/><path class="cls-55" d="M106.69,87.59,123.17,89c0,.07-.07.13-.1.2l-16.48-1.4a1.74,1.74,0,0,1,.1-.19"/><path class="cls-56" d="M106.59,87.78l16.48,1.4-.09.2L106.5,88l.09-.21"/><path class="cls-57" d="M106.5,88,123,89.38c0,.07-.07.13-.1.2L106.4,88.19l.1-.2"/><path class="cls-58" d="M106.4,88.19l16.48,1.39-.09.2-16.48-1.39.09-.2"/><path class="cls-59" d="M106.31,88.39l16.48,1.39-.09.21-16.48-1.4.09-.2"/><path class="cls-60" d="M106.22,88.59,122.7,90l-.09.2L106.13,88.8l.09-.21"/><path class="cls-61" d="M106.13,88.8l16.48,1.39-.08.21L106.05,89a1.67,1.67,0,0,1,.08-.2"/><path class="cls-62" d="M106.05,89l16.48,1.4-.09.2L106,89.21l.09-.21"/><path class="cls-63" d="M106,89.21l16.48,1.39a1.8,1.8,0,0,0-.08.21l-16.48-1.4a1.67,1.67,0,0,1,.08-.2"/><path class="cls-64" d="M105.88,89.41l16.48,1.4-.09.21-16.48-1.4.09-.21"/><path class="cls-65" d="M105.79,89.62,122.27,91a1.67,1.67,0,0,1-.08.2l-16.48-1.39a1.8,1.8,0,0,0,.08-.21"/><path class="cls-66" d="M105.71,89.83l16.48,1.39a1.8,1.8,0,0,1-.08.21L105.63,90a1.8,1.8,0,0,0,.08-.21"/><path class="cls-67" d="M105.63,90l16.48,1.39a1.8,1.8,0,0,1-.08.21l-16.48-1.39a1.8,1.8,0,0,0,.08-.21"/><path class="cls-68" d="M105.55,90.25,122,91.64l-.07.22-16.48-1.4c0-.07,0-.14.07-.21"/><path class="cls-69" d="M105.48,90.46,122,91.86l-.08.21L105.4,90.68c0-.08,0-.15.08-.22"/><path class="cls-70" d="M105.4,90.68l16.48,1.39c0,.07,0,.14-.07.22l-16.48-1.4c0-.07,0-.14.07-.21"/><path class="cls-71" d="M105.33,90.89l16.48,1.4-.08.21-16.48-1.39c0-.08,0-.15.08-.22"/><path class="cls-72" d="M105.25,91.11l16.48,1.39a1.87,1.87,0,0,1-.07.22l-16.48-1.4a1.72,1.72,0,0,0,.07-.21"/><path class="cls-73" d="M105.18,91.32l16.48,1.4c0,.07,0,.14-.07.22l-16.48-1.4c0-.07,0-.14.07-.22"/><path class="cls-74" d="M105.11,91.54l16.48,1.4c0,.07,0,.14-.07.22L105,91.76c0-.07,0-.14.07-.22"/><path class="cls-75" d="M105,91.76l16.48,1.4-.06.22L105,92a1.42,1.42,0,0,0,.07-.22"/><path class="cls-76" d="M105,92l16.49,1.4a1.42,1.42,0,0,0-.07.22l-16.48-1.4L105,92"/><path class="cls-77" d="M104.91,92.2l16.48,1.4c0,.07,0,.15-.07.23l-16.48-1.4a2,2,0,0,0,.07-.23"/><path class="cls-78" d="M104.84,92.43l16.48,1.4-.06.22-16.48-1.39.06-.23"/><path class="cls-79" d="M104.78,92.66l16.48,1.39-.06.23-16.48-1.39.06-.23"/><path class="cls-80" d="M104.72,92.89l16.48,1.39-.06.23-16.48-1.39.06-.23"/><path class="cls-81" d="M104.66,93.12l16.48,1.39-.06.24-16.48-1.4.06-.23"/><path class="cls-82" d="M104.6,93.35l16.48,1.4L121,95l-16.48-1.4.06-.23"/><path class="cls-83" d="M104.54,93.58,121,95l-.06.23-16.48-1.39.06-.24"/><path class="cls-84" d="M104.48,93.82,121,95.21c0,.08,0,.16,0,.24l-16.48-1.4c0-.07,0-.15,0-.23"/><path class="cls-85" d="M104.43,94.05l16.48,1.4v0l-16.48-1.39v-.06"/></g></g></g><g class="cls-2"><g class="cls-127"><g class="cls-2"><path class="cls-30" d="M127.93,62.78l16.48,1.4.21,0-16.48-1.4-.21,0"/><path class="cls-31" d="M128.14,62.8l16.48,1.4.25,0-16.48-1.39-.25,0"/><path class="cls-32" d="M128.39,62.83l16.48,1.39.26,0-16.48-1.39-.26,0"/><path class="cls-33" d="M128.65,62.86l16.48,1.39.26,0-16.48-1.39-.26,0"/><path class="cls-34" d="M128.91,62.89l16.48,1.39.25,0-16.48-1.4-.25,0"/><path class="cls-35" d="M129.16,62.92l16.48,1.4.27,0L129.43,63l-.27,0"/><path class="cls-36" d="M129.43,63l16.48,1.4.27,0L129.7,63l-.27,0"/><path class="cls-37" d="M129.7,63l16.48,1.4.27,0L130,63.05l-.27,0"/><path class="cls-38" d="M130,63.05l16.48,1.39.28,0L130.25,63.1l-.28-.05"/><path class="cls-39" d="M130.25,63.1l16.48,1.39.28.06-16.48-1.4-.28,0"/><path class="cls-40" d="M130.53,63.15,147,64.55l.3.06-16.48-1.4-.3-.06"/><path class="cls-41" d="M130.83,63.21l16.48,1.4.3.06-16.48-1.39-.3-.07"/><path class="cls-42" d="M131.13,63.28l16.48,1.39.29.07-16.48-1.4-.29-.06"/><path class="cls-43" d="M131.42,63.34l16.48,1.4.33.07-16.48-1.39-.33-.08"/><path class="cls-44" d="M131.75,63.42l16.48,1.39.34.08L132.09,63.5l-.34-.08"/><path class="cls-45" d="M132.09,63.5l16.48,1.39.34.09-16.48-1.39-.34-.09"/><path class="cls-46" d="M132.43,63.59,148.91,65l.23.06-16.48-1.39-.23-.06"/></g></g></g><polygon class="cls-3" points="149.92 97.71 166.4 99.1 153.05 158.21 136.57 156.81 149.92 97.71"/><path class="cls-90" d="M132.66,63.65c14,3.75,21.17,16.79,17.26,34.06l-13.35,59.1-12.48-3.33,12.15-53.77c2.22-9.85,3-20.77-9.16-24-9.79-2.61-19.82,5.84-22.66,18.43l-11.54,51L80.4,141.81,93.61,83.35c2.19-9.69-.71-16.8-8.08-18.77-11.78-3.15-22.05,5.75-25.74,22.06L49.21,133.47l-12.49-3.34L55.81,45.67l11.77,3.15-2.7,12,.28.08C74,51.74,82.73,50.31,90.82,52.47s14.72,8,16.61,19C118.21,62.35,125,61.6,132.66,63.65Z"/><g class="cls-2"><g class="cls-128"><g class="cls-2"><path class="cls-46" d="M132.66,63.65,149.14,65l.08,0-16.48-1.4-.08,0"/><path class="cls-47" d="M132.74,63.67l16.48,1.4.27.07L133,63.74l-.27-.07"/><path class="cls-48" d="M133,63.74l16.48,1.4.27.08-16.48-1.4-.27-.08"/><path class="cls-49" d="M133.28,63.82l16.48,1.4.27.07L133.55,63.9l-.27-.08"/><path class="cls-50" d="M133.55,63.9,150,65.29l.26.09L133.81,64l-.26-.08"/><path class="cls-51" d="M133.81,64l16.48,1.4.26.08-16.48-1.4-.26-.08"/><path class="cls-52" d="M134.07,64.06l16.48,1.4.26.08-16.48-1.39-.26-.09"/><path class="cls-53" d="M134.33,64.15l16.48,1.39.26.09-16.48-1.39-.26-.09"/><path class="cls-54" d="M134.59,64.24l16.48,1.39.25.09-16.48-1.4-.25-.08"/><path class="cls-55" d="M134.84,64.32l16.48,1.4.24.08-16.48-1.39-.24-.09"/><path class="cls-56" d="M135.08,64.41l16.48,1.39.23.09L135.31,64.5l-.23-.09"/><path class="cls-57" d="M135.31,64.5l16.48,1.39L152,66l-16.48-1.39-.24-.09"/><path class="cls-58" d="M135.55,64.59,152,66l.23.09-16.48-1.39-.23-.09"/><path class="cls-59" d="M135.78,64.68l16.48,1.39.23.1L136,64.77l-.23-.09"/><path class="cls-60" d="M136,64.77l16.48,1.4.23.09-16.48-1.39-.23-.1"/><path class="cls-61" d="M136.24,64.87l16.48,1.39.23.1L136.47,65l-.23-.09"/><path class="cls-62" d="M136.47,65,153,66.36l.23.1-16.49-1.4-.22-.1"/><path class="cls-63" d="M136.69,65.06l16.49,1.4.21.09-16.48-1.39-.22-.1"/><path class="cls-64" d="M136.91,65.16l16.48,1.39.21.1-16.48-1.39-.21-.1"/><path class="cls-65" d="M137.12,65.26l16.48,1.39.21.1-16.48-1.4-.21-.09"/><path class="cls-66" d="M137.33,65.35l16.48,1.4.21.1-16.48-1.39-.21-.11"/><path class="cls-67" d="M137.54,65.46,154,66.85l.21.1-16.48-1.39-.21-.1"/><path class="cls-68" d="M137.75,65.56,154.23,67l.21.11L138,65.66l-.21-.1"/><path class="cls-69" d="M138,65.66l16.48,1.4.2.1-16.48-1.39-.2-.11"/><path class="cls-70" d="M138.16,65.77l16.48,1.39.21.11-16.48-1.39-.21-.11"/><path class="cls-71" d="M138.37,65.88l16.48,1.39.2.11L138.57,66l-.2-.1"/><path class="cls-72" d="M138.57,66l16.48,1.4.19.11-16.48-1.4-.19-.11"/><path class="cls-73" d="M138.76,66.09l16.48,1.4.2.11L139,66.2l-.2-.11"/><path class="cls-74" d="M139,66.2l16.48,1.4.19.11-16.48-1.4L139,66.2"/><path class="cls-75" d="M139.15,66.31l16.48,1.4a1.18,1.18,0,0,1,.19.11l-16.48-1.39-.19-.12"/><path class="cls-76" d="M139.34,66.43l16.48,1.39.19.11-16.48-1.39a1.18,1.18,0,0,0-.19-.11"/><path class="cls-77" d="M139.53,66.54,156,67.93l.19.12-16.48-1.39-.19-.12"/><path class="cls-78" d="M139.72,66.66l16.48,1.39.19.12-16.48-1.4a1.18,1.18,0,0,0-.19-.11"/><path class="cls-79" d="M139.91,66.77l16.48,1.4.19.12-16.48-1.4-.19-.12"/><path class="cls-80" d="M140.1,66.89l16.48,1.4.18.12L140.28,67l-.18-.12"/><path class="cls-81" d="M140.28,67l16.48,1.4.19.12-16.49-1.4-.18-.12"/><path class="cls-82" d="M140.46,67.13,157,68.53l.18.12-16.48-1.39-.19-.13"/><path class="cls-83" d="M140.65,67.26l16.48,1.39.18.13-16.48-1.4-.18-.12"/><path class="cls-84" d="M140.83,67.38l16.48,1.4.18.12L141,67.51l-.18-.13"/><path class="cls-85" d="M141,67.51l16.48,1.39.18.13-16.48-1.39-.18-.13"/><path class="cls-87" d="M141.19,67.64,157.67,69a1.09,1.09,0,0,0,.17.13l-16.48-1.39-.17-.13"/><path class="cls-88" d="M141.36,67.77l16.48,1.39.18.13L141.54,67.9l-.18-.13"/><path class="cls-89" d="M141.54,67.9,158,69.29l.17.14L141.71,68l-.17-.13"/><path class="cls-90" d="M141.71,68l16.48,1.4.18.13-16.48-1.39-.18-.14"/><path class="cls-91" d="M141.89,68.17l16.48,1.39.17.14-16.48-1.39-.17-.14"/><path class="cls-92" d="M142.06,68.31l16.48,1.39.18.15-16.48-1.4-.18-.14"/><path class="cls-93" d="M142.24,68.45l16.48,1.4.17.14-16.48-1.4-.17-.14"/><path class="cls-94" d="M142.41,68.59,158.89,70l.17.15-16.48-1.4-.17-.15"/><path class="cls-95" d="M142.58,68.74l16.48,1.4.18.14-16.48-1.39-.18-.15"/><path class="cls-96" d="M142.76,68.89l16.48,1.39.17.15L142.92,69l-.16-.15"/><path class="cls-97" d="M142.92,69l16.49,1.39.16.15-16.48-1.39-.17-.15"/><path class="cls-98" d="M143.09,69.19l16.48,1.39.17.15-16.48-1.39-.17-.15"/><path class="cls-99" d="M143.26,69.34l16.48,1.39.17.17-16.48-1.4-.17-.16"/><path class="cls-100" d="M143.43,69.5l16.48,1.4.18.16-16.48-1.39-.18-.17"/><path class="cls-101" d="M143.61,69.67l16.48,1.39c.06.06.11.12.17.17l-16.48-1.39-.17-.17"/><path class="cls-102" d="M143.78,69.84l16.48,1.39.18.18L144,70c0-.06-.11-.11-.17-.17"/><path class="cls-103" d="M144,70l16.49,1.4.17.17-16.48-1.4L144,70"/><path class="cls-104" d="M144.13,70.18l16.48,1.4.16.17-16.48-1.39-.16-.18"/><path class="cls-105" d="M144.29,70.36l16.48,1.39.17.18-16.48-1.39-.17-.18"/><path class="cls-106" d="M144.46,70.54l16.48,1.39.17.18-16.48-1.39-.17-.18"/><path class="cls-107" d="M144.63,70.72l16.48,1.39.17.2-16.48-1.4-.17-.19"/><path class="cls-108" d="M144.8,70.91l16.48,1.4.19.21L145,71.12l-.19-.21"/><path class="cls-109" d="M145,71.12l16.48,1.4.18.21-16.48-1.4-.18-.21"/><path class="cls-110" d="M145.17,71.33l16.48,1.4.18.21-16.48-1.39-.18-.22"/><path class="cls-3" d="M145.35,71.55l16.48,1.39.17.22-16.48-1.39-.17-.22"/><path class="cls-111" d="M145.52,71.77,162,73.16l.18.22L145.7,72l-.18-.21"/><path class="cls-112" d="M145.7,72l16.48,1.4.17.22-16.48-1.4a1.84,1.84,0,0,1-.17-.22"/><path class="cls-113" d="M145.87,72.2l16.48,1.4.19.26-16.48-1.4-.19-.26"/><path class="cls-114" d="M146.06,72.46l16.48,1.4a2.83,2.83,0,0,1,.2.28l-16.48-1.4-.2-.28"/><path class="cls-115" d="M146.26,72.74l16.48,1.4a2.83,2.83,0,0,1,.2.28L146.46,73l-.2-.28"/><path class="cls-116" d="M146.46,73l16.48,1.4.2.28-16.48-1.39c-.06-.1-.13-.19-.2-.29"/><path class="cls-117" d="M146.66,73.31l16.48,1.39.19.29L146.85,73.6l-.19-.29"/><path class="cls-118" d="M146.85,73.6,163.33,75l.19.3L147,73.89l-.19-.29"/><path class="cls-119" d="M147,73.89l16.48,1.4.25.41-16.48-1.4-.25-.41"/><path class="cls-120" d="M147.29,74.3l16.48,1.4c.09.14.17.28.25.42l-16.48-1.4c-.08-.14-.16-.28-.25-.42"/><path class="cls-121" d="M147.54,74.72,164,76.12l.24.42-16.48-1.39-.24-.43"/><path class="cls-122" d="M147.78,75.15l16.48,1.39.23.43L148,75.58l-.23-.43"/><path class="cls-123" d="M148,75.58,164.49,77l.37.75-16.48-1.39-.37-.75"/><path class="cls-124" d="M148.38,76.33l16.48,1.39.36.8-16.48-1.4-.36-.79"/><path class="cls-125" d="M148.74,77.12l16.48,1.4a24.9,24.9,0,0,1,1.25,3.62L150,80.74a24.9,24.9,0,0,0-1.25-3.62"/><path class="cls-124" d="M150,80.74l16.48,1.4c.1.35.18.7.26,1.06l-16.48-1.4c-.08-.36-.17-.71-.26-1.06"/><path class="cls-123" d="M150.25,81.8l16.48,1.4c.06.24.11.48.16.73l-16.48-1.39c0-.25-.1-.5-.16-.74"/><path class="cls-122" d="M150.41,82.54l16.48,1.39c0,.25.09.49.13.74l-16.48-1.39c0-.25-.09-.5-.13-.74"/><path class="cls-121" d="M150.54,83.28,167,84.67l.09.57-16.48-1.4-.09-.56"/><path class="cls-120" d="M150.63,83.84l16.48,1.4c0,.17,0,.34.08.51l-16.49-1.4c0-.17,0-.34-.07-.51"/><path class="cls-119" d="M150.7,84.35l16.49,1.4.06.52-16.48-1.4c0-.17,0-.34-.07-.52"/><path class="cls-118" d="M150.77,84.87l16.48,1.4.06.52-16.48-1.4-.06-.52"/><path class="cls-117" d="M150.83,85.39l16.48,1.4c0,.15,0,.31,0,.47l-16.48-1.4c0-.16,0-.31,0-.47"/><path class="cls-116" d="M150.87,85.86l16.48,1.4c0,.13,0,.28,0,.42l-16.48-1.4,0-.42"/><path class="cls-115" d="M150.9,86.28l16.48,1.4,0,.42-16.48-1.4,0-.42"/><path class="cls-114" d="M150.93,86.7l16.48,1.4c0,.14,0,.28,0,.43L151,87.13c0-.14,0-.28,0-.43"/><path class="cls-113" d="M151,87.13l16.48,1.4c0,.14,0,.28,0,.42L151,87.56c0-.14,0-.29,0-.43"/><path class="cls-112" d="M151,87.56,167.45,89c0,.14,0,.28,0,.42L151,88c0-.14,0-.28,0-.42"/><path class="cls-111" d="M151,88l16.48,1.39v.38L151,88.35V88"/><path class="cls-3" d="M151,88.35l16.48,1.4v.38L151,88.73v-.38"/><path class="cls-110" d="M151,88.73l16.48,1.4v.38L151,89.11v-.38"/><path class="cls-109" d="M151,89.11l16.48,1.4c0,.13,0,.25,0,.38L151,89.5c0-.13,0-.26,0-.39"/><path class="cls-108" d="M151,89.5l16.48,1.39c0,.13,0,.26,0,.39L151,89.88c0-.13,0-.26,0-.38"/><path class="cls-107" d="M151,89.88l16.48,1.4c0,.12,0,.25,0,.38L151,90.26c0-.12,0-.25,0-.38"/><path class="cls-106" d="M151,90.26l16.48,1.4c0,.12,0,.24,0,.36l-16.48-1.4c0-.12,0-.24,0-.36"/><path class="cls-105" d="M150.93,90.62,167.41,92c0,.11,0,.23,0,.35L150.91,91c0-.12,0-.24,0-.36"/><path class="cls-104" d="M150.91,91l16.48,1.39c0,.12,0,.24,0,.36l-16.48-1.39c0-.12,0-.24,0-.36"/><path class="cls-103" d="M150.89,91.34l16.48,1.39,0,.36L150.86,91.7l0-.36"/><path class="cls-102" d="M150.86,91.7l16.48,1.39,0,.37-16.48-1.4,0-.36"/><path class="cls-101" d="M150.83,92.06l16.48,1.4c0,.12,0,.24,0,.36l-16.48-1.39c0-.13,0-.25,0-.37"/><path class="cls-100" d="M150.79,92.43l16.48,1.39c0,.12,0,.24,0,.36l-16.48-1.39c0-.12,0-.24,0-.36"/><path class="cls-99" d="M150.75,92.79l16.48,1.39c0,.12,0,.24,0,.35l-16.48-1.39c0-.12,0-.24,0-.35"/><path class="cls-98" d="M150.71,93.14l16.48,1.39c0,.12,0,.24,0,.36l-16.48-1.4c0-.12,0-.24,0-.35"/><path class="cls-97" d="M150.67,93.49l16.48,1.4c0,.11,0,.23-.05.35l-16.48-1.4c0-.11,0-.23,0-.35"/><path class="cls-96" d="M150.62,93.84l16.48,1.4c0,.12,0,.24,0,.36l-16.48-1.4c0-.12,0-.24.05-.36"/><path class="cls-95" d="M150.57,94.2l16.48,1.4c0,.11,0,.23-.05.35l-16.48-1.39c0-.12,0-.24,0-.36"/><path class="cls-94" d="M150.52,94.56,167,96c0,.12,0,.24-.05.36l-16.48-1.39c0-.12,0-.24.05-.36"/><path class="cls-93" d="M150.47,94.92,167,96.31l-.06.36-16.48-1.4.06-.35"/><path class="cls-92" d="M150.41,95.27l16.48,1.4c0,.12,0,.24-.07.35l-16.48-1.39c0-.12,0-.24.07-.36"/><path class="cls-91" d="M150.34,95.63,166.82,97l-.06.36L150.28,96l.06-.36"/><path class="cls-90" d="M150.28,96l16.48,1.39c0,.12,0,.24-.07.36l-16.48-1.39c0-.12,0-.24.07-.36"/><path class="cls-89" d="M150.21,96.35l16.48,1.39c0,.12-.05.24-.07.36l-16.48-1.4c0-.12.05-.24.07-.35"/><path class="cls-88" d="M150.14,96.7l16.48,1.4c0,.12-.05.24-.08.36l-16.48-1.39c0-.12.05-.24.08-.37"/><path class="cls-87" d="M150.06,97.07l16.48,1.39c0,.12,0,.24-.07.36L150,97.43c0-.12,0-.24.07-.36"/><path class="cls-85" d="M150,97.43l16.48,1.39c0,.1-.05.19-.07.28l-16.48-1.39.07-.28"/></g></g></g></g></svg>